<?xml version='1.0' encoding='utf-8'?>
<svg xmlns="http://www.w3.org/2000/svg" enable-background="new 0 0 349.182 391.636" viewBox="0 0 349.18 391.64"> <path d="m211.69,287.2s-1.958,7.58-3.656,9.8-1.699,4.702-1.699,4.702l-.653-1.306s-1.436,3.004-1.306,4.703c.262,1.699.262,5.093-.653,6.27-1.046,1.177-1.698,4.18-1.959,6.532-.261,2.482-1.699,16.329-1.176,18.942 .391,2.743.391,12.019 1.698,13.716 1.175,1.7 2.09,5.096 3.657,6.011 1.437,1.046 3.137,3.655 2.612,5.356s-.653,2.219-.653,2.219-8.621,5.88-11.757,3.66-3.397-5.879-3.397-7.58-.261-4.311-.261-4.311l-.654,1.177s0-2.743-.52-3.919-1.438-5.356-1.438-6.531v-9.014l-.782,2.482s.261-6.793 1.306-9.276c.915-2.481.915-15.285.915-16.591 0-1.177.259-5.093.259-5.093l-1.045,1.306s1.306-6.141 1.568-8.754c.12-2.75 16.97-17.38 19.58-14.51z" fill="#f2f2df" fill-rule="evenodd" stroke="#000" stroke-linecap="round" stroke-miterlimit="2.4142" stroke-width=".648"/> <path d="m203.85,308.5s-.653,1.568-1.958,2.482c-1.306,1.046-3.003,2.743-3.003,2.743l.913-2.22s-1.566,1.437-2.091,2.482c-.522,1.175-.522,1.828-.652,2.743-.262.915-.652,2.091-.652,2.091l1.435-2.091s-.261.784-.261,1.961c-.262,1.173-.521,2.873-.521,2.873l.782-1.045s.261.915.133,1.959c-.133.915 0,2.352 0,2.352l1.306-2.352s-.131,3.529-.131,4.049c0,.655.131,2.745.131,2.745s.392-5.357.915-6.793c.392-1.568 1.044-4.833 1.044-4.833s.263-3.397 1.046-4.704c.65-1.31 2.09-3.01 1.56-4.44z" fill="#bfbfac" fill-rule="evenodd"/> <path d="m208.04,362.71s-2.353-3.396-3.134-2.874c-.654.524 1.695,2.743.52,3.919-1.174,1.175-4.441,2.743-5.877,2.352-1.439-.524-4.05-1.961-3.659-3.658 .524-1.699.524-2.483 0-4.704-.391-2.09-3.136-7.186-3.136-7.186s-1.176-1.044-.652.261c.392,1.175.132,4.573.132,4.573l.521-.653s.654,1.83.654,2.612c0,.655.131,5.097.522,6.012 .263,1.045 1.177,4.31 4.179,4.57 3.01.13 10.2-2.48 9.94-5.22z" fill="#bfbfac" fill-rule="evenodd"/> <path d="m180.6,298.44s-1.437,10.973-2.482,12.149c-.915,1.306 0,3.003-.13,5.224-.263,2.09-1.569,5.749-1.7,7.708-.261,1.96-1.828,12.41-1.828,14.893 0,2.352-1.959,21.555-.522,25.734 1.306,4.18 3.527,8.492 3.527,10.451s-.13,3.005-.785,3.789c-1.305,1.567-11.494,3.266-12.932,2.091-1.438-1.306-3.136-3.006-3.005-4.703 .263-1.698.263-4.311-.131-6.009-.522-1.699-1.96-3.657-1.045-8.752 1.045-5.097 2.743-18.943 2.743-20.902s.392-3.658.392-3.658l-1.176,1.959s0-3.265.784-5.619c.653-2.481 1.175-6.531 1.175-6.531l-1.175,1.83s2.612-16.723 1.698-21.293c-1.02-4.71 14.14-12.02 16.62-8.36z" fill="#f2f2df" fill-rule="evenodd" stroke="#000" stroke-linecap="round" stroke-miterlimit="2.4142" stroke-width=".648"/> <path d="m17.697,136.58s-10.06,6.403-10.712,9.146c-.523,2.743-5.749,11.627-5.749,11.627l1.437.782s-2.22,5.094-1.958,9.405-.392,10.19-.392,10.19l1.045-1.566s1.305,3.918.652,6.268c-.522,2.354-.261,8.232-.261,8.232s1.045,8.1 2.352,11.626l.522-1.437s3.004,9.798 5.356,11.759c2.352,2.09 13.195-69.89 7.708-76.03z" fill="#aa3832" fill-rule="evenodd" stroke="#000" stroke-linecap="round" stroke-miterlimit="2.4142" stroke-width=".648"/> <path d="m290.86,175.12c.524.784 1.567,3.265 1.567,4.835 0,1.696 1.438,2.611 1.438,2.611-1.438-.653-3.657-3.397-3.657-3.397s.262,3.005.783,4.181 1.437,3.658 1.437,3.658l-2.22-1.046s.521,1.961.783,3.005c.261.915.915,4.313.915,4.313l-2.873-2.875s.26,2.875.26,4.049c0,1.176 2.874,3.79 2.874,3.79s-.915-.653-2.35-1.176-3.66-3.005-3.66-3.005 .653,3.266.915,4.441c.262,1.176.784,4.18.784,4.18l-2.22-3.003s.783,4.18.26,5.226c-.521.915.523,4.311.523,4.311l-2.222-3.136s-.262,1.177-.521,2.614 3.005,3.134 3.005,3.134-1.045-.129-2.745-.651-2.611-2.222-2.611-2.222-.524.523-.524,2.744c0,2.09 2.354,4.311 2.354,4.311l-3.397-2.352c.523,1.7-.129,5.748-.129,5.748l-1.569-3.657s0,1.437-.914,2.482c-1.047.915-1.177,4.834-1.177,4.834l-.784-3.66s-.783,1.177-1.437,3.396c-.783,2.223 1.178,4.444 1.178,4.444l-3.136-2.221 1.436,3.92-3.918-2.483c1.958,1.697 1.958,5.356 1.958,5.356-.261-2.482-4.05-3.66-4.05-3.66 .132,1.961-.261,5.62-.261,5.62 0-1.7-2.481-4.183-2.481-4.183 0,1.96-1.96,6.662-1.96,6.662 1.045-1.959-.26-6.398-.653-4.702-.521,1.699-3.396,5.096-3.396,5.096l1.436-4.574s-.782.915-1.307,1.96c-.391.913-3.136,2.352-3.397,3.396-.129.915-1.436,4.573-1.436,4.573v-4.573s-.914,1.96-1.698,3.398c-.653,1.437-2.613,3.919-2.613,3.919s1.177-2.482 1.177-3.138c0-.782-.915-2.743-.915-2.743s-1.045,1.437-1.697,2.743c-.784,1.177-3.006,5.487-3.006,5.487 1.048-1.959.261-6.793.261-6.793s-1.695,3.006-2.873,4.181c-1.306,1.175-4.441,3.918-4.441,3.918l1.438-4.179s-2.091,2.611-3.789,4.179c-1.699,1.437-3.657,3.397-3.657,3.397l3.657-6.793c-1.046,1.828-5.356,5.096-6.14,5.356-2.351.782-1.697,5.748-1.697,5.748l-.524-3.92s.262,1.308-.391,1.699c-.784.524-1.96,3.658-1.96,3.658l.263-3.396s-2.482,2.743-2.482,4.702 .521,8.754.521,8.754l-1.699-2.092c0,1.045-.131,4.441 0,5.228 .263,1.437-2.744,3.397-2.744,3.397l-.391-2.483s-.521,3.92-1.045,6.399c-.523,2.352-2.482,6.142-3.135,7.317-.784,1.176-1.959,4.18-1.959,4.18s.781-3.658 0-2.481c-.786,1.175-1.701,1.437-2.876,2.611-1.305,1.306-1.698,3.66-1.698,3.66l-.261-2.745s-1.437,2.745-1.698,3.527c-.262.655-3.005,3.135-3.005,3.135l.263-2.48s-1.699,2.48-3.396,2.873c-1.7.651-2.876,2.352-2.876,2.352l.915-2.482s-1.958,1.175-3.657,2.874-2.353,3.919-2.353,3.919-.521-1.699 0-3.659 0-4.311 0-4.311l-1.174,1.699s.129-3.396-.263-5.094c-.521-1.699-3.397-3.397-3.917-2.481-.523.914-3.66,6.792-3.66,6.792l.524-3.135s-1.699,3.919-2.482,5.618c-.787,1.699-3.397,4.964-3.397,6.531 0,1.438-4.049,6.01-4.049,6.01l1.046-3.789s-4.443,4.05-5.357,4.57c-1.046.524-3.135,2.223-3.657,3.138-.523,1.045-2.743,4.441-2.743,4.441s1.306-5.879 1.566-7.58 0-4.311 0-4.311l-1.698,2.354 .132-2.354-.394-4.048-2.742,5.225s.522-1.959.783-2.874c.261-1.046 0-3.919 0-3.919l-.261,1.177-2.613,5.095s1.437-4.18 1.177-5.617-.262-6.533-.262-6.533l-2.221,4.572s.784-2.482.522-3.789c-.263-1.567 1.176-7.446 1.176-7.446l-2.612,4.441v-3.657l-1.699,4.179s-.523-1.437-.783-2.612c-.262-1.306.783-4.182.783-4.182l-2.482,4.182s-.914-3.397-.521-5.355c.521-2.091 1.567-4.965 1.959-5.88 .521-.915.521-4.966.521-4.966l-3.657,4.182s.784-3.397 1.698-5.355c1.046-1.832 1.046-3.137 1.046-3.137l-1.698.915s.914-1.306.914-3.397c0-1.958-2.612-.651-2.612-.651l.652,1.437-3.919-2.223 2.221,2.745s-4.18-2.22-5.095-2.745-2.482-.26-2.482-.26l3.266,2.221s-1.698-.784-3.396-.915c-1.698-.26-3.004-2.219-4.963-3.005-1.96-.653-4.049-1.565-4.049-1.565l2.874,3.524s-1.177-.521-2.482-1.697c-1.177-1.176-5.356-2.874-8.491-3.526-3.135-.784-3.919-1.046-3.919-1.046l1.959,3.396s-1.959-1.306-3.789-3.005c-1.959-1.697-6.663-1.175-9.537-1.829-2.874-.784-4.833-1.96-4.833-1.96l3.134,3.66c-2.219-2.223-9.927-5.357-13.193-6.402-3.136-.915-6.792-2.612-8.23-3.658-1.437-.914-2.613-2.614-2.613-1.699 0,1.045 1.438,3.397 1.438,3.397s-6.271-4.834-7.578-5.356c-1.175-.393-1.437,1.044-2.351,1.568-1.046.391-1.307,4.05-1.307,4.05l-.653-2.614s-1.045,2.874-1.437,5.095c-.653,2.22-2.482,4.833-2.482,4.833l.784-3.134c-1.828,2.874-5.617,4.704-5.617,4.704l-4.18,4.311 .784-2.612s-2.22,2.612-3.266,4.311c-.915,1.696-4.18,3.789-4.18,3.789l1.829-2.874s-3.528,3.134-4.703,4.702c-1.177,1.437-7.708,6.271-7.708,6.271-5.356,2.482-26.519,15.543-26.519,15.543s-3.397,3.66-3.136,2.223c.131-1.437-1.044-7.053-1.044-7.053l-1.438,2.743-.784-2.092s-.653-2.352-1.437-3.789c-.654-1.568 1.176-6.662 1.176-6.662l-1.699,2.482s.785-4.572 1.567-6.27c.654-1.7.392-5.225.392-6.271 0-1.306-.261-6.141-1.437-7.448-1.175-1.174-.915-3.396-.915-3.396l-1.306,1.438s.523-5.748 1.698-7.185c1.306-1.568 1.567-5.618 1.699-7.315 .261-1.699 1.044-5.096.523-7.577s.521-6.792.521-6.792l-1.437,2.874s.261-5.749 1.699-9.145 1.959-9.276 2.352-12.672c.522-3.397-1.176-8.492-1.176-8.492l-.522.653s-.653-.784-.653-1.175c-.262-2.223-.262-7.97-1.045-9.276-.653-1.046-.915-6.662-.915-6.662l-.782,5.356s-.394-7.708-.394-13.586c0-2.743.131-4.965.394-6.531h284.53z" fill="#bc3e37" fill-rule="evenodd" stroke="#000" stroke-linecap="round" stroke-miterlimit="2.4142" stroke-width=".648"/> <path d="m10.772 175.12h279.17" fill="none" stroke="#bc3e37" stroke-linecap="round" stroke-miterlimit="2.4142" stroke-width=".936"/> <path d="m293.08,175.12c1.176.391 2.482.784 2.743.653l-.782-.653-2.876-2.482s3.658-.262 5.095-.914c0,0-1.828,0-2.874-1.045-.915-.915 4.834-1.177 4.834-1.177s-3.136-1.044-3.788-1.96c-.784-1.042-1.961-1.958-1.961-1.958l3.397.52-2.745-3.134 2.745.915s-1.958-2.22-1.958-3.92-.263-4.572-.263-4.572l1.699,3.919s-.523-3.396-.523-4.964c0-1.437.261-8.754.261-8.754l2.221,3.92s-.784-4.311-1.045-5.356c-.13-.915-1.176-3.92-.392-5.617 .652-1.699-.784-6.793-.784-6.793l2.482,3.396s-.783-4.05-1.307-5.356c-.392-1.175-.13-5.485-.13-5.485l.653-10.32 1.697,4.964s-.653-5.619-.261-7.055c.522-1.438 0-11.757 0-11.757l2.222,2.221s-.523-2.612-1.176-5.095c-.785-2.483-4.182-11.235-3.659-14.369 .523-3.138-.522-5.356-.522-5.356l1.961,2.219s-.785-4.311-.785-5.876c.261-3.659 3.658-4.834 3.658-4.834s-13.063-42.066-21.163-39.583c-2.482.782-6.793,2.614-8.883,3.92-2.222,1.175-7.577,3.396-7.577,3.396l4.05-.785s-4.05,1.177-5.747,3.658-3.659,3.658-6.404,5.094c-1.696,1.046-2.873,6.533-3.526,7.317l3.526-2.743s-1.826,3.396-3.394,5.092c-1.439,1.83-1.439,4.444-2.874,6.663-1.438,2.091-4.834,8.23-6.795,9.929l-1.436,2.745 3.657-3.529s-3.003,5.356-3.657,8.754c-.785,3.526-1.961,3.656-2.482,7.837s-.915,9.538-1.961,11.234c-.912,1.699-1.437,4.051-1.437,4.051l2.874-3.919s-.392,6.402-1.828,8.361c-1.569,1.959-3.528,6.531-3.528,6.531l3.007-3.397s-.524,4.182-1.961,5.88-3.658,5.748-3.658,5.748l3.137-2.874s-2.352,3.92-2.614,5.356-.783,3.658-1.698,5.095c-1.045,1.437-2.219,5.616-2.219,5.616l1.958-1.696s-1.046,3.655-3.134,4.833c-2.222,1.174-7.84,3.135-11.498,1.437s-2.612-.522-2.612-.522l-4.703-1.177 .523,1.177s-3.919.26-5.355-.391c-1.438-.786-9.275-3.919-9.275-3.919l-3.659-1.961 1.307,2.221s-3.396-2.482-8.753-2.221-9.667-1.698-12.279-2.482c-2.744-.653-9.93-2.612-9.93-2.612l1.83,1.437s-6.27-.262-7.446-.653c-1.307-.521-9.537-3.005-14.108-2.743-4.704.26-11.236-2.223-13.194-4.834l1.437,2.875-6.792-2.352 2.221,1.697s-3.396.655-4.833.131c-1.437-.391-9.016-.131-13.195-.915-4.05-.784-11.104-2.874-11.104-2.874l-6.14-1.699 1.437,1.437s-2.612-1.175-7.968-1.175-11.366-.521-11.366-.521l2.351.915s-6.532-.655-9.274.26c-2.613,1.046-15.546,2.221-15.546,2.221l3.397.915s-3.397,1.437-5.878,1.306c-2.352-.26-8.23,1.177-8.23,1.177l2.874.522s-2.874,1.698-5.095,1.437c-2.09-.262-5.094,1.437-5.094,1.437h3.396s-3.789,1.699-6.27,1.699-6.793,3.656-9.538,6.269c-2.612,2.743-3.788,4.18-3.788,4.18l3.135-1.437s-3.005,2.352-3.919,4.574c-.915,2.219-1.699,5.617-1.699,5.617l2.221-1.959s-2.221,3.136-2.481,5.093-.261,5.88-.915,7.839c-.783,1.96-1.959,7.708-1.959,7.708l1.437-2.352s-.261,4.57-1.176,6.531c-.523,1.045-1.044,2.354-1.305,4.181h284.52c0-.391-.131-.521-.131-.521-.15-.43 1.15-.03 2.33.49z" fill="#bc3e37" fill-rule="evenodd" stroke="#000" stroke-linecap="round" stroke-miterlimit="2.4142" stroke-width=".648"/> <path d="m11.295 175.12h278.91" fill="none" stroke="#bc3e37" stroke-linecap="round" stroke-miterlimit="2.4142" stroke-width=".936"/> <path d="m195.23,153.69c-2.089.915-8.752,1.699-11.232,3.397-2.354,1.699-3.922,4.573-5.618,7.056-1.7,2.352-3.527,4.049-3.527,4.049s4.312-2.092 4.961-2.612c.787-.521 6.143-2.874 6.143-2.874s-4.834,4.831-6.143,5.095c-1.173.26-5.092,7.053-6.79,8.49-1.829,1.437-9.538,21.948-10.321,23.907-.653,1.959 4.181-22.992-3.135-16.591-.915.784-6.009,11.106-7.054,16.069-.914,5.226-1.438,8.1-1.438,8.1v-7.315s-1.438,2.611-1.698,4.57-2.481,6.402-2.481,6.402 .521-4.18.521-5.095v-2.482s-.914,3.136-1.437,5.356-1.177,6.531-1.177,6.531-.783-3.134-1.044-4.571-.654-10.712-.26-13.586c.521-2.874.783-4.965.783-4.965s-3.396,8.621-3.396,10.712 .26-11.497 1.437-13.455 1.177-3.658 1.177-3.658-3.397,7.055-4.05,9.929c-.784,2.874-1.306,4.833-1.306,4.833s-.132-3.658 0-4.701c.26-.786.521-4.182.521-4.182s-1.175,2.874-1.437,3.787c-.262.917-2.221,7.708-1.96,9.016 0,0-.261-6.402.262-8.621 .521-1.961 1.175-9.016 1.959-10.06 0,0-3.005,6.14-3.135,7.837-.262,1.567-1.046,3.266-1.046,3.266s.523-11.104 1.437-13.717c1.045-2.743-7.054,9.929-8.492,18.55 0,0 3.92-21.033.261-16.459 0,0-3.918,3.527-4.833,6.401-1.044,2.874-3.396,6.4-3.396,6.4s1.437-5.748 1.698-7.575c.262-1.961-1.306-3.267.522-6.663 1.699-3.397 2.091-4.31 2.091-4.31s-5.619,2.611-7.055,5.747c-1.437,3.265-5.356,7.054-5.617,9.536-.131,2.352 1.829,8.884 1.829,8.884s-2.481-5.095-2.744-8.493c-.26-3.265 0-4.701 0-4.701s-2.873,2.874-3.134,4.701c-.262,1.961-1.96,6.793-1.96,6.793s.523-4.833.784-6.924c.131-2.219.392-5.094 1.176-6.531 .654-1.437 1.437-3.92 1.437-3.92s-3.918,2.614-4.573,4.313c-.783,1.699-5.878,11.104-6.139,15.023s-.261,5.095-.261,5.095-.915-3.657-.915-6.402c0-2.611-.261-9.536.653-12.671 1.046-3.136 1.307-6.531 1.307-6.531s-1.307,1.829-2.483,4.833c-1.175,2.873-1.959,5.748-1.698,6.924s-.262,3.92-.262,3.92-1.175-5.096-.653-7.708c.392-2.611 1.176-5.616 1.176-5.616s-2.481,3.397-2.481,4.704c0,1.175-1.177,4.048-1.177,4.048s.262-7.315 1.698-10.188 2.222-4.311 2.222-4.311-2.222,1.175-3.92,3.789c-1.699,2.743-3.919,9.274-3.919,11.624s-.653,7.708-.653,7.708 0-4.311-.522-6.27c-.522-1.83-.783-4.963-.522-6.924s.522-4.702.522-4.702-1.959,2.743-1.959,4.44-1.176,4.311-1.176,5.487-.261,3.658-.261,3.658-1.177-1.697-1.044-4.963c.261-3.396 1.566-6.662 1.566-6.662s-1.96,1.306-2.481,2.743-1.96,6.402-1.698,8.099l.523,3.397s-1.307-2.614-1.438-6.011c-.261-3.265-.261-10.842 1.176-13.715 1.437-3.005 0-6.139 0-6.139s-.784,4.57-2.221,7.054-2.613,4.834-2.613,5.616c0,.654.13,3.919.13,3.919s-1.698-1.566-.653-6.923c.915-5.225.915-5.487.915-5.487s-3.135,2.874-3.658,5.747c-.391,3.005-1.176,6.141-.13,8.491 .914,2.353.914,4.313.914,4.313s-2.874-4.704-2.613-7.837c.131-3.267.915-6.925.915-6.925s-2.222,3.92-2.482,5.879-3.135,6.924-3.135,9.145-.522,3.919-.522,3.919-.654-4.704-.132-6.793c.393-2.091.915-6.011.915-6.011s-2.482,1.177-2.613,2.874c-.261,1.701-1.567,4.834-1.306,6.533 0,0-1.437-11.364-.393-14.761 0,0-2.48,2.48-2.48,4.572 0,2.219-2.222,5.617-2.222,5.617l-1.438,2.874s.784-2.352.915-5.486c.261-3.135-.392-9.014.522-10.713 0,0-3.658,6.793-3.658,8.752s-.393,5.749-1.176,7.446-.522,3.789-.522,3.789-1.176-2.874-1.176-4.311-.262-4.963.523-7.186c.652-2.219 1.697-6.792 1.697-6.792l1.96-5.356-3.527,2.874s1.828-4.833 2.743-5.748c.914-1.046-9.929,7.708-11.234,12.148-1.176,4.31-2.09,6.011-2.09,6.011s-1.307-5.618 1.176-10.451 2.481-5.88 2.481-5.88-5.878,3.529-7.446,6.141c-1.306,2.613-2.351,6.793-2.351,6.793l.652-6.532s-3.396,1.697-3.396,4.573c0,3.005-1.96,5.878-1.96,5.878s1.044-4.834.392-7.577c-.785-2.614-1.568-5.619-1.568-5.619s-.131-4.833.522-7.053c.654-2.092-3.136,3.658-3.658,5.878s-.521,6.793.262,8.754c.653,1.957-1.699-2.483-1.699-2.483v-7.184l-1.437,2.088s-1.307-4.311-.522-5.356c.652-.915-2.482,3.529-3.005,6.925-.392,3.397-.13,7.708-.13,7.708s-1.568-3.658-1.568-5.617-.653-3.66-.131-6.011c.392-2.481-1.96,0-3.005,3.138-.915,3.134-1.437,7.968-1.437,7.968l-1.438-7.446s-1.437,3.788-.261,6.531c1.176,2.614 1.437,7.053 1.437,7.053l1.045,11.497 .261,3.135s-3.003-2.223-2.612-4.441c.13-2.091-.261-7.839-.914-9.014-.784-1.046-.654-4.442-.654-4.442l-.782,4.311s-1.046-2.352-.654-14.893c.131-5.748.523-9.014 1.437-10.973 1.046-1.961 1.438-5.095 1.438-5.095l-1.176,1.175s1.176-5.748 1.959-7.708c.654-1.959.654-5.879.915-7.839s2.481-5.093 2.481-5.093l-2.221,1.959s1.176-3.528 2.221-5.617c2.222-4.05 4.05-4.965 4.05-4.965l-3.003,1.306s.653-.915 3.266-3.658c2.743-2.613 7.184-6.269 9.536-6.269 2.614,0 6.401-1.699 6.401-1.699s109.6-13.194 160.94,22.86l1.32,3.61z" fill="#dedec8" fill-rule="evenodd"/> <path d="m16.914,137.23s-3.92,2.352-8.101,7.444c-.521.524-6.27,12.15-6.27,12.15l3.395-3.658s-1.958,2.745-1.698,4.441c.131,1.699.654,3.789.131,6.271-.392,2.482-.392,3.92-.392,3.92s2.352-6.402 2.09-7.84c-.131-1.437.785-3.135.785-3.135s.782,4.182.521,5.619-1.306,6.793-1.306,6.793 3.658-7.055 3.919-8.754c.262-1.69 5.357-21.55 6.926-23.25z" fill="#e0e0ca" fill-rule="evenodd"/> <path d="m26.45,128.87c2.482,0 6.663-1.83 6.663-1.83h-3.266s2.613-1.437 4.833-1.306c2.09.262 5.355-1.568 5.355-1.568l-2.613-.391s5.096-1.308 7.578-1.177c2.351.391 6.139-1.306 6.139-1.306l-3.004-.915s12.149-1.175 14.762-2.09c2.744-.915 9.536-.26 9.536-.26l-1.697-.786s4.964.391 10.321.391 8.36,1.308 8.36,1.308l-1.307-1.438 5.487,1.566s7.055,2.223 11.236,3.006c4.049.653 11.888.391 13.325.913 1.437.393 5.094-.391 5.094-.391l-1.567-1.306 6.141,2.221-1.308-2.352c2.482,2.352 8.1,4.442 12.673,4.18s12.802,2.223 13.978,2.614c1.308.522 8.1.784 8.1.784l-1.698-1.175s6.531,1.697 9.275,2.483c2.612.651 6.924,2.61 12.279,2.35 5.356-.262 9.014,2.352 9.014,2.352l-1.043-2.092 3.135,1.701s7.837,3.134 9.275,3.789c1.437.782 5.617.522 5.617.522l-.395-1.045 4.443,1.174s-1.046-1.174 2.614.522c0,0 1.435.393 2.35,2.092 0,0-4.18,1.045-6.794,0 0,0-2.48,1.437-2.613,5.094 0,1.046-2.088-3.92-2.088-3.92l-3.527,4.966 .783,4.441s-1.829-2.743-3.003-2.614c0,0-.394,3.136-2.614,4.05-1.961.915-8.361,1.697-11.365,3.134 0,0 2.221-1.697 2.742-4.57 .524-3.005-.521-3.397-.521-3.397s-1.961,2.352-4.834,3.919c-2.875,1.437-4.833,2.874-4.833,2.874s4.31-4.833 4.31-6.401c0-1.437 1.961-3.789 1.961-3.789s-3.922,0-5.355,1.437c-1.439,1.437-8.101,3.919-8.101,3.919s1.96-.524 2.875-3.004c1.046-2.352 3.265-4.313 3.265-4.313s-4.18,0-7.054.915c-3.005,1.045-8.359,4.834-8.359,4.834s1.958-3.397 3.396-4.834c1.565-1.437 3.918-3.396 3.918-3.396s-6.271-.524-9.668,1.437-4.964,1.568-6.4,3.004c0,0 4.442-5.356 7.315-5.356 0,0-10.713,0-13.586.391-2.875.524-9.275,1.046-9.275,1.046s-5.356.522-7.315,1.959 3.396-3.92 6.793-4.442c3.526-.391 5.878-1.959 5.878-1.959s-5.878-1.437-10.19-.393c-4.441.915-8.229.393-13.585,3.397-5.355,2.874-8.752,4.311-8.752,4.311s5.748-5.357 10.189-6.793c4.312-1.437 7.708-3.397 7.708-3.397s-3.528-1.173-9.145.523-7.838,0-11.235,2.874c0,0 6.402-4.311 9.798-4.834 0,0-9.276-1.042-12.673,1.96-3.396,2.874-10.189,4.833-10.189,4.833s4.834-2.874 6.271-4.31c1.438-1.568 2.875-3.525 4.441-3.525 0,0-7.315-.395-10.32,1.566-2.875,1.959-8.752,4.311-8.752,4.311s5.356-5.356 8.36-6.271l2.874-1.042s-7.316-.917-10.19,1.042c-3.004,1.961-9.797,3.92-9.797,3.92s3.397-1.959 4.963-3.92c1.437-1.958 2.874-2.481 2.874-2.481s-3.919-.915-8.229,0c-4.442,1.044-12.673,4.442-14.631,5.878s-4.964,3.92-4.964,3.92 2.09-4.966 5.486-6.922c3.397-1.832 6.27-2.876 6.27-2.876s-14.63-.521-17.505,2.481c-3.004,2.874-6.4,4.835-6.4,4.835s3.919-6.271 5.878-7.316c1.96-.915 3.919-1.959 3.919-1.959s-7.708,0-10.19,2.481c-2.48,2.354-5.877,3.919-5.877,3.919l3.397-4.963s-2.483.521-4.312,1.566c-1.96.915-8.36,3.397-8.36,3.397l7.315-4.442-10.069.3z" fill="#f7f7e5" fill-rule="evenodd"/> <path d="m74.654,248.4s-2.351-1.568-3.003-2.48c-.523-.915-2.613-3.658-2.613-3.658l.392,2.873s-1.438-2.482-2.091-3.788-1.829-5.357-2.481-5.748c-.523-.391-2.222-2.873-2.222-2.873l-.261,2.873s-.914-3.788-1.829-4.31c-1.044-.655-3.134-4.834-3.266-5.619-.392-.915-3.266-6.14-3.266-6.14s.131,2.745.522,3.919c.392,1.177 1.828,5.488 2.352,7.446 .654,1.959.914,4.049.914,4.049l-1.306-1.958s.392,3.789.131,5.096c-.392,1.437-1.829,7.053-1.96,8.099-.13.913-.13,2.087-.13,2.087l-.262-3.917s-1.176,1.044-1.437,2.09-.914,3.66-1.306,4.311c-.131.785-1.959,3.659-1.959,3.659l-.131-3.005s-1.699,2.874-1.829,4.049c-.131,1.044-.653,3.136-1.307,4.182-.783,1.174-2.22,2.219-2.22,2.219l1.044-2.612s-1.305,1.958-2.611,2.352c-1.438.524-4.182,1.96-4.835,2.743-.521.655-2.22,1.96-2.22,1.96v-1.306s-1.567,1.565-2.351,3.003c-.784,1.308-2.222,4.704-2.222,4.704s-3.657,6.269-1.306,8.36 13.064-1.306 13.064-1.306l11.496-10.582-.654,1.959s1.045-.653 6.01-7.707l-.262,2.612s2.482-3.005 3.136-3.397c.523-.52 4.703-2.612 5.879-5.355l-.131,2.352s2.613-7.448 2.874-9.276l.784,2.09s-.129-1.568.653-2.09c.653-.62 2.22-1.93 2.22-1.93z" fill="#8b282a" fill-rule="evenodd"/> <path d="m50.225,267.08s-4.442,12.15-4.442,16.722c0,4.703-.26,23.384.262,26.651 .392,3.134 0,9.927.915,11.364 1.045,1.437 1.959,7.577 2.874,10.19 1.045,2.743 4.181,6.793 5.226,8.23 .914,1.568 4.572,5.617 3.526,8.1-.914,2.48-7.054,4.18-8.752,3.265-1.698-1.046-6.662,8.492-13.847-26.39-1.306-7.054-3.397-21.162-4.312-14.629-.391,2.479-.653-8.099-1.044-10.06-3.267-13.848-3.397-20.119-.654-26.127 2.613-6.011 9.406-6.402 9.406-6.402l-.392,2.222s2.482-1.437 3.396-2.352c1.045-1.046 3.919-2.483 3.919-2.483l-1.698,3.397s3.396-2.482 4.311-3.788c.915-1.568-.914,3.524-.914,3.524l2.22-1.43z" fill="#e6e6d4" fill-rule="evenodd" stroke="#000" stroke-linecap="round" stroke-miterlimit="2.4142" stroke-width=".648"/> <path d="m58.847,347.29c.391-.391 1.437.784 2.221,1.959 .784,1.306 3.136,5.225 3.659,5.75 .521.653 1.044,2.22-.132,2.48-1.306.262-3.918-1.044-4.571-1.044-.523-.131 0,1.568.392,2.35 .392.785 1.829,3.267-.523,3.137s-10.581-1.83-12.149-3.266c-1.567-1.568-2.613-4.704-2.481-5.879 0-1.046-1.568-3.397-.916-3.004s2.353,1.437 3.79,1.306c1.567-.129 5.094-.523 7.053-1.699 1.438-.913 1.569,0 1.569,0s1.435-1.44 2.088-2.1z" fill="#a4a186" fill-rule="evenodd"/> <path d="m45.915,350.82s.522,1.699.914,2.092c.262.391 0,1.306.131,1.828 0,.393 2.09,4.049 3.789,4.964 0,0-2.22-.651-2.613-1.044 0,0-1.307-.785-2.483-4.573 0,0-.129-1.568-.261-1.961-.262-.391-1.046-2.09-1.046-2.09l1.569.78z" fill="#686655" fill-rule="evenodd"/> <path d="m59.5,347.43c.392.26 1.044,1.046 1.567,1.828 .784,1.306 3.136,5.225 3.659,5.75 .521.653 1.044,2.22-.132,2.48-1.306.262-3.918-1.044-4.571-1.044-.523-.131 0,1.568.392,2.35 .392.785 1.829,3.267-.523,3.137s-10.581-1.83-12.149-3.266c-1.567-1.568-2.613-4.704-2.481-5.879 0-1.046-1.568-3.397-.916-3.004" fill="none" stroke="#000" stroke-miterlimit="2.4142" stroke-width=".648"/> <path d="m59.761,356.44s-2.743-6.271-2.874-6.793l1.437-1.437c.393-.262 1.176,1.959 1.699,2.745 .914,1.959 4.571,6.398 3.266,6.269 0,0-1.829-.521-2.613-.915 0-.01-.784-.27-.915.12z" fill="#686655" fill-rule="evenodd"/> <path d="m309.41,29.717s1.566-8.36 2.088-10.451c.653-1.959 2.352-5.093 2.483-6.007 .131-1.046 2.221-5.356 2.744-7.055 .392-1.699 1.697-4.573.653-4.835-1.045,0-2.744.393-5.228,4.051-2.48,3.397-3.788,5.747-4.048,6.271-.131.521-1.307,2.614-1.307,2.614l.131-1.177s-.915,2.09-1.046,3.134c-.262,1.177-1.698,3.267-1.698,3.267l.131-.913s-1.046,2.088-1.699,2.612c-.521.391-4.311,3.789-4.701,4.702-.394.785-.654,1.567 1.437,1.96 2.11.26 10.08,1.827 10.08,1.827z" fill="#bc3e37" fill-rule="evenodd" stroke="#000" stroke-linecap="round" stroke-miterlimit="2.4142" stroke-width=".648"/> <path d="m315.81,5.55s-.915,2.09-1.829,3.134c-.915.915-2.221,3.137-2.221,3.137l.915-.13s-1.046.913-1.568,1.437c-.392.391-1.305,2.35-1.305,2.35l1.174-.391s-1.306.915-1.566,1.437c-.132.524-.654,2.612-.654,2.612l-1.046,1.831 .915-.395s-.392,1.308-.652,1.701c-.392.391-1.697,1.959-1.697,1.959l.652-.131s-.652.784-1.177,1.306c-.652.522-2.482,3.267-2.482,3.267l3.528.915 .913-2.223-.782.264s.653-1.306 1.176-1.7c.652-.392 1.045-1.566 1.045-1.566l-.785.522s.262-1.175.524-1.698 .783-2.22.783-2.22l.784-1.7-.522.262s-.13-.653.522-1.437c.652-.653 1.175-2.221 1.175-2.221l-.522.131s1.044-1.177 1.178-1.568c.128-.26.521-1.566.781-2.221 .393-.521 1.177-2.482 1.177-2.482l1.57-4.182z" fill="#a02e30" fill-rule="evenodd"/> <path d="m310.58,16.653s-1.83,2.612-1.57,3.005c.263.522-.128,1.568-.52,2.35-.393.917-.915,1.961-.915,1.961h.392l-1.436,1.308s-2.223,2.352-1.83,2.743c.392.521.392,1.568 1.044.521 .524-.913.524-1.437.915-2.089 .392-.523 1.83-3.007 1.959-3.527 .131-.653.785-2.354.785-3.004 .01-.655 1.18-3.268 1.18-3.268z" fill="#752223" fill-rule="evenodd"/> <path d="m280.8,29.979s14.242-4.833 21.426-2.743c6.531,1.961 13.716,3.917 17.897,8.751 1.698,1.83 5.616,4.182 8.099,5.357 2.352,1.177 10.189,6.663 12.803,7.446 2.742.653 6.923,4.703 7.446,9.145 .262,3.134 0,6.271.391,7.968 .524,1.699-1.174,4.311-3.788,4.18 0,0 .393,3.135-1.044,3.66-1.437.391-4.313.65-6.4.13-1.961-.393-3.397-2.614-5.356-4.05-1.83-1.437-7.055-3.005-9.146-2.743-2.221.26-7.315,2.219-7.315,2.219l1.437.915s-2.482.262-4.571-.131c-2.221-.522-5.095-.26-5.095-.26l1.175,1.175s-2.743-.522-4.441-1.175c-1.699-.784-1.175,1.697-1.175,1.697s-1.439-1.306-3.136-2.221c-1.699-.913-4.572-3.134-4.572-3.134s-5.616-4.704-5.357-7.055c.132-2.483-.521-7.185-2.22-9.927-1.699-2.614-.261-5.618-.261-5.618s-1.438-7.837-4.441-9.276c-2.89-1.437-4.85-3.396-2.37-4.31z" fill="#f2f2df" fill-rule="evenodd"/> <path d="m280.8,29.979s14.242-4.833 21.426-2.743c6.531,1.961 13.716,3.917 17.897,8.751 1.567,1.699 5.356,4.051 7.708,5.228 2.482,1.173 10.711,6.792 13.325,7.576 2.742.653 6.791,4.703 7.314,9.145 .262,3.134 0,6.271.391,7.968 .524,1.699-1.174,4.311-3.788,4.18 0,0 .393,3.135-1.044,3.66-1.437.391-4.313.65-6.4.13-1.961-.393-3.397-2.614-5.356-4.05-1.83-1.437-7.055-3.005-9.146-2.743-2.221.26-7.315,2.219-7.315,2.219l1.437.915s-2.482.262-4.571-.131c-2.221-.522-5.095-.26-5.095-.26l1.175,1.175s-2.743-.522-4.441-1.175c-1.699-.784-1.175,1.697-1.175,1.697s-1.177-1.175-2.874-2.088" fill="none" stroke="#000" stroke-linecap="round" stroke-miterlimit="2.4142" stroke-width=".648"/> <path d="m332.27,68.125s-1.306-.784-2.744-1.306c-1.437-.393-5.356-2.09-6.139-1.83-.915,0-3.92-1.045-3.267-.391 .521.522 1.174.915.652,1.437-.521.391-2.873,2.09-2.873,2.09s4.049-1.699 5.616-1.437c1.699.262 4.182-.262 10.06,3.396 5.748,3.397.392,0 .392,0l-1.7-1.959z" fill="#c4c4b1" fill-rule="evenodd"/> <path d="m289.81,28.15s-7.315,2.088-9.276,1.828-5.616,2.352-5.616,2.352 15.151,26.78 14.761,22.077c-.393-3.787.26-3.787.26-5.487s2.222-3.656 2.222-3.656l.261,5.093s1.045-5.093.523-6.792-.261-4.441.654-5.618c1.044-1.175 1.828-1.437 3.003-1.697s3.136-1.96 3.136-1.96v1.698s1.958-1.698 1.438-2.873c-.523-1.306-1.438-2.481-1.438-2.481l3.659,1.044s-1.96-2.221-3.659-2.221-2.222-1.045-1.176-1.045h2.875s-2.86-1.96-11.61-.262z" fill="#bc3e37" fill-rule="evenodd"/> <path d="m296.34,30.109s1.306-3.526 2.089-4.441c.784-1.046 3.006-5.487 3.397-7.054s2.222-9.276 3.003-10.321c.915-1.177 4.835-6.532 3.789-7.316-.782-.784-1.176-1.306-4.311.784-3.005,2.09-6.662,7.969-7.577,9.015-1.044,1.045-5.095,4.179-5.617,5.226-.522,1.177-1.829,2.743-1.829,2.743v-1.306s-1.044,1.828-1.044,2.743c0,.785-1.438,4.834-2.092,5.487l-1.306,1.306v-1.437s-1.044,2.352-1.959,3.136c-1.046.915-3.397,1.83-2.092,2.481 1.31.522 10.07,3.267 15.55-1.046z" fill="#bc3e37" fill-rule="evenodd"/> <path d="m281.32,29.717c.521-.261 1.177-.651 1.567-1.044 .915-.784 1.959-3.136 1.959-3.136v1.437l1.306-1.306c.653-.653 2.092-4.702 2.092-5.487 0-.915 1.044-2.743 1.044-2.743v1.306s1.307-1.566 1.829-2.743c.522-1.046 4.573-4.18 5.617-5.226 .915-1.046 4.572-6.924 7.577-9.015 3.135-2.089 3.528-1.567 4.311-.784 1.046.784-2.874,6.139-3.789,7.316-.781,1.045-2.611,8.754-3.003,10.321s-2.613,6.008-3.397,7.054c-.521.654-1.306,2.611-1.698,3.658 0,0-.914,1.699-1.959,2.874-.393.653 0,1.699.263,1.959" fill="none" stroke="#000" stroke-linecap="round" stroke-miterlimit="2.4142" stroke-width=".648"/> <path d="m30.238,273.88s-3.918,2.22-4.311,3.919c-.653,1.698-1.699,3.004-1.699,3.004s.393-5.224 1.307-6.14c1.045-.915 1.699-3.396 1.699-3.396l-4.312,5.878 1.306-4.703s-2.743-.26-3.527.915c-.653,1.306-5.878,7.578-5.878,7.578l.653-2.876s-3.266,1.438-4.049,2.876c-.654,1.567-2.874,6.269-1.829,10.975 .914,4.571-.785,5.617-.262,9.274 0,0 .262,3.396 1.437,4.573 1.176,1.306 4.311,12.934 4.834,14.37s1.438,10.711 1.438,10.711l.784-2.221 1.959,10.451 .391-1.961s1.96,3.92 1.96,5.096c0,1.306 3.396,6.401 3.919,10.06s-.523,9.144 2.743,10.711c3.136,1.439 4.312,3.789 7.055,3.136 2.613-.785 9.274-1.961 9.927-3.658s0-6.141-1.697-7.056c-1.699-1.044-5.879-9.796-7.577-12.41 0,0-.653-6.792-4.18-12.411 0,0-4.051-17.242-4.312-22.468-.261-4.97-1.437-24.31 2.221-34.23z" fill="#f2f2df" fill-rule="evenodd" stroke="#000" stroke-linecap="round" stroke-miterlimit="2.4142" stroke-width=".648"/> <path d="m45.129,359.7s0,1.567-1.567,1.045c-1.437-.524-1.176-3.658-3.657-3.397-2.352.264 1.96,2.222.261,3.66s-2.613,1.697-4.181.653c-1.306-.915-2.352-2.09-3.658-2.875-1.176-.782-1.829-.782-2.613-2.874-.784-2.219-.915-4.701-2.613-6.922-1.829-2.09.523,2.221.523,3.658 0,1.568-.523,4.966.391,7.054 .915,2.222 3.92,5.096 6.271,5.356 2.484.26 12.151-.39 10.843-5.36z" fill="#bfbfac" fill-rule="evenodd"/> <path d="m223.19,255.46s-4.443-.522-4.834,1.437c-.521,1.959-1.045,2.874-1.045,2.874s-.523-3.657.263-4.572c.782-1.044-1.7,1.176-2.223,2.22-.522.915-1.438,4.051-1.438,4.051l.524-5.616s-2.482,2.22-3.007,3.917c-.391,1.699-.652,2.874-.652,2.874l.523-4.571s-3.266,2.219-3.397,3.656c-.262,1.57-.782,2.614-.782,2.614s.521-5.226 1.175-6.531c.785-1.175-3.136,1.699-3.395,3.135-.263,1.568-1.702,4.18-1.702,4.18l.787-5.616s-3.137,2.482-3.66,4.441-.782,2.611-.782,2.611l.521-5.616-4.571,5.226s-2.221,3.396-2.483,5.487c-.262,2.22-1.177,6.139-1.177,6.139l-1.044-2.352s-1.175,4.572-1.696,6.4c-.524,1.961-2.614,7.97-2.614,7.97s3.005.26 3.92,2.874c.521,1.438.262,4.313.262,4.313s2.873-3.658 2.873-6.402c-.131-1.045.654-2.611 1.436-4.049 .655-1.437 3.135-4.834 3.135-4.834l-.521,5.356s1.046-2.745 1.961-3.66c1.045-.913 2.743-3.004 2.743-3.004v3.004s1.699-1.959 2.09-3.265c.524-1.177 1.044-2.613 1.044-2.613l.262,2.874s1.177-1.697 1.177-3.265c0-1.698 1.176-4.441 1.176-4.441l3.004-3.005-.262,1.96s.652-2.091 1.698-3.137c.915-.913 2.352-2.612 2.352-2.612l-.652,3.136s2.22-2.743 2.482-3.658c.129-1.045 1.828-3.135 1.828-3.135l.521,2.09c-.01-.01 2.47-6.93 4.17-8.89z" fill="#8b282a" fill-rule="evenodd"/> <path d="m151.21,268.65s3.005-4.441 3.005-5.747c0-1.177 1.045-4.833 1.045-4.833l-2.22,4.442s.261-1.7.261-3.005c0-1.177-.261-3.658.262-4.573 .392-1.046.652-2.221.652-2.221l-2.221,2.743s.783-3.918 1.307-5.094c.392-1.306.914-3.005.914-3.005l-2.874,3.396s0-2.612.653-4.049c.783-1.568 1.307-3.396 1.307-3.396l-2.744,1.697s2.221-3.005 3.006-4.964c.652-1.958 1.697-3.396 1.697-3.396l-3.266,2.743s1.307-3.137 1.96-4.443c.783-1.173 1.306-2.612 1.306-2.612l-2.742,2.875s-3.136,6.398-3.136,9.013c0,2.611-.262,4.443-.262,4.443l.784-.524s0,2.612-.522,3.658c-.523.915-.262,3.658-.262,3.658l1.046-1.568s-1.046,2.745-.784,4.181 .784,2.743.784,4.442-1.96,3.788-1.96,3.788l.262,1.958 .522.13c-.01-.01 1.68-.4 2.21.25z" fill="#8b282a" fill-rule="evenodd"/> <path d="m218.09,240.83s1.178,5.356-.259,7.315-1.961,3.918-1.961,3.918l.914-6.4-2.874,3.397 4.18-8.23z" fill="#8b282a" fill-rule="evenodd"/> <path d="m231.94,243.31s4.832-3.397 5.355-6.924c.392-3.397 2.874-5.75 2.874-5.75l.523,5.75s.392-7.187 1.96-9.669c1.437-2.483 1.437-4.311 1.437-4.311s-3.92,4.835-4.834,6.271c-1.05,1.43-5.36,14.1-7.32,14.63z" fill="#8b282a" fill-rule="evenodd"/> <path d="m250.88,232.6s.915-3.006 2.482-5.356c1.436-2.483 1.826-5.356 1.826-5.356l1.048,3.396 2.35-5.356 1.567-3.918s-2.482,12.148-4.965,12.672c-2.36.53-4.32,3.93-4.32,3.93z" fill="#8b282a" fill-rule="evenodd"/> <path d="m274.4,218.49s-.915-1.697-1.176-3.003c-.261-1.176-.261-2.614-.261-2.614l-1.175,2.614-.915-.915s-1.307,1.959-1.044,2.612c.259.784 1.044,2.743 1.044,2.743l.13-2.743 1.307.784 .394-1.437c.01,0 1.05,1.7 1.71,1.96z" fill="#8b282a" fill-rule="evenodd"/> <path d="m264.47,221.23s1.045,3.789 1.697,4.704l.263,1.306s-1.437-.784-1.437-1.438c0-.784-.784-1.961-.784-1.961l-1.437,2.614c0,.01-.52-3.26 1.7-5.22z" fill="#8b282a" fill-rule="evenodd"/> <path d="m280.28,207.78-1.438-1.699s-.783.915-.521,1.959c.26.915 1.437,3.137 1.437,3.137s-.14-2.88.52-3.4z" fill="#8b282a" fill-rule="evenodd"/> <path d="m271.79,203.86-.915-1.699-.785,2.222-.782,3.656-.654-2.743s-.521,3.919-.521,4.834c0,1.046-.916,3.265-.916,3.265s3.135-4.441 3.659-5.879c.37-1.44.9-3.66.9-3.66z" fill="#8b282a" fill-rule="evenodd"/> <path d="m286.02,194.19-4.702-2.874 .391,1.96-2.611-2.221-4.18-1.83 1.043,1.83s-3.004-1.177-3.919-2.614c-1.045-1.437-3.134-3.136-3.134-3.136s1.174,3.136 2.089,4.05c1.045,1.044 4.964,4.442 4.964,4.442l.915-1.046 2.222,1.697 1.176,1.437-.261-1.437s1.696.264 1.958,1.045c.262.655 1.437,1.83 1.437,1.83v-1.699l3.137,1.961-.54-3.4z" fill="#8b282a" fill-rule="evenodd"/> <path d="m266.43,198.24s-1.697-.915-2.221-2.354c-.392-1.437-1.699-2.61-1.699-2.61l.522,2.61 1.438,4.313v-1.959l2.222,3.396-.26-3.4z" fill="#8b282a" fill-rule="evenodd"/> <path d="m198.89,242.52s-2.482,12.15-3.922,14.633c-1.436,2.352-2.221,4.311-2.221,4.311l.262-5.356-3.135,4.834-.521,5.356 1.96-5.097 .259,3.92s3.396-3.658 3.921-5.356c.391-1.697 2.61-7.577 2.61-7.577l1.047-.131 1.175-17.504-1.45,7.98z" fill="#8b282a" fill-rule="evenodd"/> <path d="m206.34,241.61s-1.959,5.487-2.612,7.057c-.783,1.437-1.959,4.049-1.959,4.049l2.874-4.313-.392,3.789c0-.01 3.13-6.02 2.09-10.59z" fill="#8b282a" fill-rule="evenodd"/> <path d="m187.13,258.59s0-1.699-.913-2.743c-1.048-.915-1.438-6.272-1.438-6.272l-.263,3.658-.26,3.658 1.175-.522 1.69,2.21z" fill="#8b282a" fill-rule="evenodd"/> <path d="m180.86,255.85s-2.874-3.791-2.874-5.096c0-1.176-.785-4.571-.785-4.571l-.915,4.571v4.834l1.438-2.612 3.14,2.88z" fill="#8b282a" fill-rule="evenodd"/> <path d="m174.72,251.02s-1.046-4.833-.784-6.532 0-2.875 0-2.875l-2.221,6.793 1.438-1.306s.52,2.74 1.56,3.92z" fill="#8b282a" fill-rule="evenodd"/> <path d="m167.14,256.37-.522-3.396s-2.352,2.481-2.613,3.658 1.177-.784.914,1.175-.261,4.441-.261,4.441l1.306-4.441 .915,1.699 .26-3.13z" fill="#8b282a" fill-rule="evenodd"/> <path d="m223.19,248.67s2.219-3.006 1.961-4.443 .652-4.573.652-4.573l-1.176,2.092s-1.046-1.177-.785-3.397c.261-2.092-1.697-5.748-1.697-5.748s.784,3.396.523,5.356 .913,5.093.913,5.093l-.38,5.62z" fill="#8b282a" fill-rule="evenodd"/> <path d="m232.86,228.94 .521-3.66-1.176,1.437s-.261-2.612-1.306-4.18c-.915-1.438-2.092-4.833-2.092-4.833s.915,4.701.915,6.529c0,1.961.262,6.403.262,6.403l1.436-1.437v3.397l1.44-3.66z" fill="#8b282a" fill-rule="evenodd"/> <path d="m183.34,271.4s-1.701-2.352-1.701-4.049-1.567-3.397-1.567-3.397v3.919s-1.436-1.308-1.958-2.483c-.393-1.177-.393-2.873-.393-2.873s-1.438,2.088-1.046,3.134c.523.914 2.222,3.397 2.222,3.397l.912,2.22 1.049-1.958 2.49,2.09z" fill="#8b282a" fill-rule="evenodd"/> <path d="m153.69,276.1s2.744-3.002 3.268-4.701c.391-1.699 1.437-2.352 1.437-2.352l-.262,3.658s.914-1.959 1.437-2.745c.522-.651 1.176-1.958 1.176-1.958s-.914,3.659-1.83,5.356c-1.044,1.699-2.219,3.396-2.219,3.396l.262-2.609-3.28,1.95z" fill="#8b282a" fill-rule="evenodd"/> <path d="m158.91,297 1.438-3.919 .655,1.568 2.479-5.096 .523,1.699 1.959-3.527s-1.697,4.701-1.697,6.139-.785,2.614-.785,2.614v-3.134l-2.873,5.617v-3.005l-1.7,1.04z" fill="#8b282a" fill-rule="evenodd"/> <path d="m185.04,282.5s.13,3.789-.783,5.226c-.913,1.567-1.175,3.527-1.175,3.527l-.524-3.265-2.482,2.482 1.046-2.223 .915-2.221 1.046.784 1.95-4.32z" fill="#8b282a" fill-rule="evenodd"/> <path d="m146.37,260.03s-2.873-3.135-3.267-5.878c-.523-2.612-1.305-9.145-1.305-9.145l-.655,7.053s-1.437-4.702-1.697-8.359-1.045-10.844-1.045-10.844l-1.437-4.704v11.236l-2.221-5.356s.261,6.27 1.045,8.23c.652,1.959 2.352,6.531 2.352,6.531l1.044,5.094 .521-5.224s.393,5.224 1.698,6.922c1.19,1.84 4.98,4.45 4.98,4.45z" fill="#8b282a" fill-rule="evenodd"/> <path d="m131.35,252.19s.521,3.92 1.698,5.225c1.307,1.177 3.136,4.311 3.136,4.311l-.653-3.134s1.698,2.22 2.874,3.658c1.306,1.437 3.919,3.919 4.834,4.31 0,0-4.834-1.96-5.488-2.874-.783-1.045-.783,1.437-.783,1.437s-.783-1.697-1.959-2.874c-1.18-1.33-3.66-8.12-3.66-10.08z" fill="#8b282a" fill-rule="evenodd"/> <path d="m120.64,260.55s-.654-2.743-2.352-3.918-3.919-5.618-3.919-5.618l.784,4.572s-2.221-3.789-2.482-6.01-1.959-7.055-1.959-7.055l-1.437-3.917 1.175,11.233 .785-1.959s1.437,7.315 2.612,9.014c1.307,1.699 2.745,2.352 2.745,2.352l-.263-2.612c.01.01 4.19,3.15 4.32,3.93z" fill="#8b282a" fill-rule="evenodd"/> <path d="m120.25,238.08s.914,7.575 2.352,10.318c1.437,2.614 1.698,4.313 1.698,4.313s-3.396-2.875-3.658-4.834c-.132-1.958-1.175-4.442-1.175-4.442l-.523,2.221s-1.176-2.614-.914-4.311-.522-6.402-.522-6.402l1.437,5.618 1.3-2.49z" fill="#8b282a" fill-rule="evenodd"/> <path d="m92.421,239.13s1.044,7.315 3.005,9.538c1.959,2.088 3.396,3.394 3.396,3.394l-.523-2.221s2.222,3.659 3.658,5.096 4.573,4.179 4.573,4.179-5.749-3.526-6.532-4.701l.261,1.437s-1.437-.915-2.874-2.614c-1.437-1.71-4.965-4.85-4.965-14.12z" fill="#8b282a" fill-rule="evenodd"/> <path d="m81.317,249.32s-2.221-3.396-3.135-6.532c-1.046-3.136-2.222-9.536-2.222-9.536l-.784,3.397s-1.698-4.312-1.698-7.448c0-3.265-.392-7.315-.392-7.315s-.784,12.149 1.437,17.766l1.176-1.306c.001,0 2.743,8.36 5.618,10.98z" fill="#8b282a" fill-rule="evenodd"/> <path d="m53.622,218.75s-1.044-1.698-1.698-4.18c-.785-2.482-1.438-5.878-1.438-5.878l-.784,3.134s-1.698-2.088-1.698-4.049-1.176-5.096-1.176-5.096l-.784,2.614-1.437-7.054s-1.045,6.14 0,7.578c.915,1.437 1.437,4.833 1.437,4.833l.784-2.614s1.307,4.05 2.352,5.749 1.306,3.005 1.306,3.005l-.261-2.482 3.397,4.45z" fill="#8b282a" fill-rule="evenodd"/> <path d="m55.059,199.28s-.785,5.619-.262,6.793c.391,1.177.784,4.573.784,4.573s-3.004-2.874-3.267-4.311c-.13-1.437-.783-3.396-.783-3.396l1.567,2.088 1.961-5.74z" fill="#8b282a" fill-rule="evenodd"/> <path d="m45.129,215.09s.653,7.315-.391,9.143c-.915,1.961-1.176,3.66-1.176,3.66s.523-4.311 0-5.097c-.522-.651-1.176-3.396-1.176-3.396l1.438,1.177 1.305-5.48z" fill="#8b282a" fill-rule="evenodd"/> <path d="m53.622,227.24s.915,2.613.653,4.31 0,3.136 0,3.136-.653-2.09-1.437-3.136c-.653-.915-.653-1.697-.653-1.697l-.784,2.219 .131-3.396 1.959,1.046 .131-2.48z" fill="#8b282a" fill-rule="evenodd"/> <path d="m41.865,251.54s-.393,3.656-2.091,4.833-2.482,2.221-2.482,2.221 1.437-3.005 1.437-3.92-1.176.915-1.96,1.699-4.441,4.18-4.441,4.18 4.703-5.879 5.226-7.054c.523-1.308 1.437-2.744 1.437-2.744l1.176,2.482 2.482-5.878-.784,4.18z" fill="#8b282a" fill-rule="evenodd"/> <path d="m48.918,243.04s0,3.138-.391,5.096c-.523,1.961-1.568,3.918-1.568,3.918l.522-3.658-1.437,1.437 2.874-6.8z" fill="#8b282a" fill-rule="evenodd"/> <path d="m8.292,260.94s-1.177-.915-.916-2.091c.261-1.306 1.176-3.396 1.176-3.396l-1.176.653s1.699-3.658 1.959-5.356 1.176-5.095 1.176-5.095 0,4.834-.522,6.793l1.306-1.437s-1.044,3.397-1.959,4.834c-1.044,1.6-1.044,5.12-1.044,5.12z" fill="#8b282a" fill-rule="evenodd"/> <path d="m161.01,186.74s-5.096,7.707-5.75,12.803l3.789-3.396s-2.875,4.311-3.396,6.922c-.393,2.745-.652,3.92-.652,3.92l.652-5.616-1.698,1.567c0,.01-.39-9.65 7.06-16.19z" fill="#8b282a" fill-rule="evenodd"/> <path d="m157.61,217.18-5.618,6.924 1.96-1.044s.523,1.959-1.437,4.571c-1.961,2.745-1.961,6.662-1.961,6.662s1.699-5.616 3.136-7.053c1.567-1.438 4.442-5.356 4.442-5.356l-2.875,1.699 2.35-6.4z" fill="#8b282a" fill-rule="evenodd"/> <path d="m154.73,217.96 2.482-4.572-2.482,1.961 .263-3.529s-1.308,2.483-1.308,3.919-1.175,4.442-1.175,4.442l2.23-2.22z" fill="#8b282a" fill-rule="evenodd"/> <path d="m43.563,193.28s-.784-3.138 0-4.313c.783-1.306 1.699-5.878 1.699-5.878s-.653,1.958-1.829,3.395c-1.306,1.439-2.482,3.658-2.482,5.619s1.699-1.961 1.699-1.961l.913,3.14z" fill="#8b282a" fill-rule="evenodd"/> <path d="m40.689,199.02-2.612,8.49-.784,4.573 1.96-5.094 .653,3.658c-.001,0-.001-10.71.783-11.63z" fill="#8b282a" fill-rule="evenodd"/> <path d="m19.003,179.43s-1.176,3.919-.523,6.271c.784,2.483 1.568,5.357 1.568,5.357l.392-2.614s.523.915 1.437,3.396c1.045,2.483.784,6.402.784,6.402l-1.176,6.792s0-9.796-.522-10.582c-.523-.651-.915,2.091-.915,2.091s-.522-3.005-1.045-3.919c-.523-1.06-2.482-6.67 0-13.2z" fill="#8b282a" fill-rule="evenodd"/> <path d="m13.385,178.77s-.914,8.23 0,10.189c1.046,1.961 1.307,6.531 1.307,6.531l-1.698-4.57-.522,1.828s-1.437-3.134-.784-5.487c.783-2.48 1.697-8.49 1.697-8.49z" fill="#8b282a" fill-rule="evenodd"/> <path d="m230.9,156.56s-.392,5.097 1.045,7.58c1.437,2.352 1.696,4.57 1.696,4.57l.524-3.134s2.089,2.874 2.089,4.18c0,1.175 3.137,5.485 4.835,6.793 1.83,1.175-3.789-2.482-5.226-4.181l.391,2.874s-3.134-2.352-4.31-5.485c-1.3-3.26-2.21-9.28-1.03-13.2z" fill="#8b282a" fill-rule="evenodd"/> <path d="m269.17,180.47s-1.045-1.308-3.268-2.745c-2.088-1.437-4.309-4.311-4.309-4.311l.521,2.874s-1.698-1.437-2.742-3.134c-.915-1.701-1.177-2.745-2.482-3.659-1.177-1.044-3.137-3.398-3.137-3.398s1.436,3.92 2.483,5.096c.913,1.175 5.095,7.054 6.792,7.708l.262-1.699 5.89,3.27z" fill="#8b282a" fill-rule="evenodd"/> <path d="m277.4,66.426s.521-1.044.653-2.743c.262-1.699.521-4.573.521-4.573l-3.136,7.315 .523-5.356s-1.958,4.05-2.221,5.356c-.262,1.176 0,7.708 0,7.708l1.437-4.834s.261,4.574.523,6.795 .261,3.396.261,3.396l1.177-11.366 .914,2.09-.64-3.788z" fill="#8b282a" fill-rule="evenodd"/> <path d="m298.96,69.823s-2.351-2.221-3.134-1.961c-.652.262-1.438,2.221-1.438,2.221l-.522-1.306s-1.698,1.437-1.959,2.482c-.131.915-.131,3.658-.131,3.658l-1.699,3.136 1.83-1.437s0,.915.521,3.658c.523,2.613-.261,3.917-.261,3.917l1.438-3.005s-.393,4.444.26,5.619c.784,1.174 3.267,4.834 3.267,4.834s-1.567-5.096-1.567-6.271c0-1.177.784-7.97-.392-9.143l2.089,1.828s-.782-3.66-.13-5.618c.51-1.83 1.82-2.612 1.82-2.612z" fill="#8b282a" fill-rule="evenodd"/> <path d="m287.59,23.709s-.653,2.613-1.176,3.527c-.653.784-1.178,2.352-1.178,2.352l1.568-1.308s-.914,1.699-1.174,2.092c-.262.522-.523,1.699-.395,2.35 .133.655.133,1.568-.391,1.961-.653.391-2.35,1.437-2.222,1.046s.784-1.046.784-1.701c0-.651-1.698.524-1.698.524s1.046-.784 1.046-1.175c0-.262-1.699-.786-2.874-.786-1.046,0-1.961-.129-1.961-.129s2.093-.391 2.614-.521 1.306-.655 1.306-.655l-1.827.131s1.696-.782 1.958-1.177c.262-.26 2.482-2.61 2.482-2.61l.261.391c0-.001 2.35-2.744 2.87-4.312z" fill="#8b282a" fill-rule="evenodd"/> <path d="m306.8,4.242s-.915,1.699-2.352,2.613c-1.306,1.046-4.573,5.879-4.573,5.879l1.961-1.044-2.353,2.09s-1.96,1.829-2.483,2.873c-.65.915-1.435,2.481-1.435,2.481l1.306-.651s-1.175.913-1.827,1.697c-.785.785-1.7,2.874-2.092,3.919-.392.915-1.045,2.614-1.045,2.614l1.045-.524s-.784.915-1.045,1.699c-.262.653-.784,1.438-.784,2.35 0,1.046.784,2.483.391,3.138-.391.522-.391,1.437-.391,1.437l1.045-2.092 .131,1.306 1.175-1.437v1.046s.393-1.828.524-2.482c.128-.782.128-2.743.783-3.134 .653-.524 2.874-4.05 2.874-4.05l-.915.653s.522-1.306.915-1.959c.521-.524 1.959-3.528 1.959-3.528l-.654.131s.785-1.568 1.57-2.612c.653-1.044 2.351-4.833 2.479-5.225 .134-.521.655-2.874 1.439-3.658 .9-.656 2.34-3.53 2.34-3.53z" fill="#a02e30" fill-rule="evenodd"/> <path d="m298.83,42.257c1.045-.651.784-.129 2.354-1.175 1.697-.913 4.18-3.787 7.053-3.135 2.743.655 4.313,3.004 4.313,3.004s-1.307-.913-1.96-1.175c-.783-.393-2.613-1.568-4.443-.915-1.044.522-2.35,1.959-2.35,1.959s1.174-.651 2.089-.651 1.828-.262 3.528.651c1.829.915 3.003,2.092 3.918,2.092 .784.26 1.567,1.176.392,1.176s-1.697-.523-2.48.129-3.529,2.874-7.315,1.437c-3.791-1.566-1.177-.784-1.961-1.045-.782-.13-1.176-.521-.521.393 .521,1.044 3.266,4.181 7.837,2.612 0,0-2.351,1.569-5.224.393-2.745-1.044-4.313-2.352-4.574-3.136-.392-.783-.523-.913-.914-1.306-.41-.262-.93-.653.25-1.308z" fill="#c4c4b1" fill-rule="evenodd"/> <path d="m333.45,63.683s-.785.129-1.569-.653c-.913-.915-.652-1.697-1.828-2.352s-2.873.26-5.88-1.697c-2.088-1.308-2.741-1.832-2.088-.785 1.043,1.437 3.134,2.614 5.223,2.614s2.482.523 3.136,1.437c.524.784.915,1.697 1.568,1.961s-.392,1.175.262,1.828c.522.653 3.396-.522 2.611-1.959-.65-1.44-1.43-.394-1.43-.394z" fill="#c4c4b1" fill-rule="evenodd"/> <path d="m319.86,36.25s-.912-1.306-2.48-2.223c-1.438-.913-2.091-.913-2.091-.913l2.091,1.437 1.438,1.568-1.178-.524-1.959-1.044 1.699,1.308s-1.045-.264-1.699-.524c-.521-.261-3.134-.784-3.134-.784s3.134,1.044 3.527,1.959c.521.786 2.221,1.828 2.221,1.828l-1.83-.391-1.044-.391s.782,1.176 1.697,1.437c.784.262 2.221,1.959 2.221,1.959l-2.743-.782s1.959.782 2.091,1.305c.131.392 1.174,2.743 1.305,3.658 .132.784.132,3.136 3.527,4.05 0,0 4.051,3.005 5.748,3.396 1.7.522 3.006,2.612 2.744,3.788-.392,1.306 1.306,2.483 1.696,3.396 .263,1.046.134,1.57 0,1.96-.129.522.134,1.829.524,2.22 .262.393-.653,1.7-1.83,1.305-1.044-.26-1.697,2.354-.261,3.92 0,0 2.091,1.83 2.481,2.352 .394.393 1.83,1.83 3.397,2.223 1.307.26 4.965.26 6.01-.394 0,0 1.044-.262.782-3.526 0,0 1.569.131 2.745-.915 0,0 .914-.653 1.043-2.09 0,0 0-.262-.129-1.437 0,0-.262-.524-.129-3.658 .129-3.004-.395-5.225-.785-6.011 0,0-.784-2.743-4.049-5.485 0,0-1.699-1.044-3.006-1.437-1.176-.391-4.179-2.09-4.703-2.483s-7.053-4.311-8.62-5.093c0,0-4.836-2.744-5.488-3.528-.66-.654-1.83-1.436-1.83-1.436z" fill="#66665c" fill-rule="evenodd"/> <path d="m306.66,50.62s3.397.782 6.271,0c2.742-.655 5.616-1.437 7.575-1.177 1.57.262 4.181.913 4.966,1.699 .912.915-.915-.131-2.482-.522-1.046-.131-2.091-.393-3.527-.264s-4.049,1.177-6.141,1.308c-1.95.129-6.66-1.044-6.66-1.044z" fill="#c4c4b1" fill-rule="evenodd"/> <path d="m345.72,59.632c-.261-.391-.521.131-1.176-.913-.391-.655-.521-3.136-1.306-3.919-.783-.653-2.613-1.961-4.311-1.568-1.83.393-.915,1.175 0,1.83 .915.65 3.397.915 3.789,1.565 .521.655.784,2.223 1.306,2.745 .4.523 2.36,1.175 1.7.26z" fill="#4d4d42" fill-rule="evenodd"/> <path d="m347.29,68.908s-.521.26-.913.131c-.263-.131-.521-.262-.393-.393 .13-.26.523-.653.784-1.044 .131-.521.261-3.004 0-2.09-.392,1.044-.654,2.874-1.828,3.527-1.306.653-3.267.521-4.313.129-1.045-.522-2.612-1.828-3.003-2.35-.394-.393-2.613-2.482-3.397-2.743 0,0 0,1.044-1.437,1.306 0,0 1.175.521 1.96.653 .653.26 1.828,1.046 2.48,1.697 .784.655 3.267,2.352 4.049,3.007 1.178.913 3.136,1.044 3.527.521v-1.306c0-.261 1.83.13 2.48-1.045z" fill="#4d4d42" fill-rule="evenodd"/> <path d="m338.02,52.97s-1.176.394-.784,1.306c.523.786-.131.131-.259,0-.14-.26-.27-1.306 1.04-1.306z" fill="#4d4d42" fill-rule="evenodd"/> <path d="m311.63,43.303c-.26-.131-.914-.782-1.306-1.175-.521-.522-2.352-2.09-4.704-1.308 0,0-1.565.395-3.267,1.437 0,0-1.958.786-1.173,1.176s1.173.393 1.566.655 3.004,1.697 4.181,1.566c1.045,0 3.266-1.045 3.527-1.437 .25-.39 1.17-.914 1.17-.914z" fill="#ededed" fill-rule="evenodd" stroke="#000" stroke-linecap="round" stroke-miterlimit="2.4142" stroke-width=".648"/> <path d="m306.8 45.395c1.699 0 3.136-1.046 3.136-2.223 0-1.306-1.437-2.352-3.136-2.352-1.83 0-3.267 1.046-3.267 2.352 0 1.177 1.43 2.223 3.27 2.223z" fill="#8f6b3c" fill-rule="evenodd" stroke="#4c371d" stroke-linecap="round" stroke-miterlimit="2.4142" stroke-width=".648"/> <path d="m309.8,42.652s-.787-1.701-3.137-1.701c0,0-2.221,0-3.005,1.83 0,0 1.306-.523 1.959-.523 .65-.13 2.61-.392 4.18.394z" fill="#72522c" fill-rule="evenodd"/> <path d="m307.97,42.652c.131,0 .915.651-.263,1.042-.913.264-2.09,0-2.35-.129-.262,0-.262-.784.13-.913 0,0 1.44-.131 2.48,0z" fill-rule="evenodd"/> <path d="m307.45,41.866c.523-.392 1.307.522.784.655-.39,0-1.04-.264-.78-.655z" fill="#e6e6e6" fill-rule="evenodd"/> <path d="m307.97,43.172c.131,0 .261.393 0,.393s-.26-.393 0-.393z" fill="#ccc" fill-rule="evenodd"/> <path d="m144.02,152.52c-1.698.524-6.531,4.834-7.969,8.754-1.567,3.789-1.958,6.922-1.958,6.922s3.657-7.969 6.27-9.667c2.75-1.69 7.58-7.57 3.66-6z" fill="#f7f7e5" fill-rule="evenodd"/> <path d="m119.98,146.64c-2.221-.26-7.577,1.177-10.059,4.311-2.352,3.265-3.527,3.658-4.572,5.878-.914,2.221-1.699,5.619-2.874,8.232-.653,1.305 3.396-4.575 4.572-6.271s4.181-5.619 5.618-6.271c0,0-1.437,2.612-1.959,4.048s1.044-.521 3.135-2.874c2.221-2.482 2.482-2.221 3.397-3.003 1.05-.67 5.1-3.8 2.74-4.06z" fill="#f7f7e5" fill-rule="evenodd"/> <path d="m145.98,148.99s-6.141,3.265-6.793,4.702c-.784,1.437-5.356,4.572-6.14,5.357-.654.655-2.09,3.135-2.09,3.135s.392-3.135 2.352-5.878c1.96-2.61 9.27-10.71 12.67-7.31z" fill="#f7f7e5" fill-rule="evenodd"/> <path d="m155,151.47s-3.136.524-5.096,2.743c-1.96,2.092-5.096,6.011-5.355,8.232s-2.743,11.364-3.658,12.8c-1.046,1.568 2.352-3.134 3.135-4.833s2.743-6.531 3.919-8.751 2.222-4.051 3.396-5.356c1.17-1.17 5.88-5.09 3.66-4.83z" fill="#f7f7e5" fill-rule="evenodd"/> <path d="m139.71,144.94s-3.004-1.176-5.877.651c-2.875,1.961-5.617,6.14-6.402,7.317-.653,1.304-3.528,3.917-4.833,4.701 0,0 4.833-1.958 6.662-3.657 1.698-1.699 3.135-4.964 5.096-5.619 1.82-.78 6.79-2.87 5.35-3.39z" fill="#f7f7e5" fill-rule="evenodd"/> <path d="m72.564 133.44s-5.356 1.046-8.753 3.397c-3.526 2.481-5.878 12.15-5.878 12.15s3.92-6.793 7.839-9.145c6.269-3.92 6.792-6.4 6.792-6.4z" fill="#f7f7e5" fill-rule="evenodd"/> <path d="m107.57 140.24s-6.4 1.046-8.23 3.529c-1.959 2.352-5.879 10.189-5.356 12.541 0 0 3.397-6.793 6.271-8.752 2.87-1.97 7.31-7.32 7.31-7.32z" fill="#f7f7e5" fill-rule="evenodd"/> <path d="m88.632 139.32s-5.879 1.961-7.838 4.835c-1.959 3.004-2.874 10.712-2.874 10.712s2.874-6.271 5.748-9.276c3.004-2.87 4.964-6.27 4.964-6.27z" fill="#f7f7e5" fill-rule="evenodd"/> <path d="m174.98 152.52s-8.1 1.83-10.58 5.747c-2.354 3.92-5.357 13.589-4.313 15.546 0 0 2.353-9.145 5.878-11.102 3.4-1.97 9.01-10.2 9.01-10.2z" fill="#f7f7e5" fill-rule="evenodd"/> <path d="m56.496 133.05s-8.36 1.437-11.234 8.23c-2.875 6.793-5.356 9.667-5.356 9.667s6.4-8.23 9.275-10.189c3.004-1.96 7.315-7.71 7.315-7.71z" fill="#f7f7e5" fill-rule="evenodd"/> <path d="m41.472 135.01s-5.878 2.874-6.792 5.225c-1.046 2.483-3.005 9.276-3.005 9.276s4.312-6.793 6.402-8.23c1.828-1.45 3.395-6.28 3.395-6.28z" fill="#f7f7e5" fill-rule="evenodd"/> <path d="m81.317,137.36s-5.356,1.046-7.838,3.919c-2.352,2.874-4.441,7.315-4.441,7.315s5.486-5.878 7.446-6.4c1.958-.4 4.833-4.84 4.833-4.84z" fill="#f7f7e5" fill-rule="evenodd"/> <path d="m75.438,147.55s-7.315,6.793-7.707,12.15c-.523,5.356-1.046,7.315-1.046,7.315s3.005-7.708 4.442-9.667 4.833-6.4 4.311-9.8z" fill="#f7f7e5" fill-rule="evenodd"/> <path d="m159.57,156.83s-8.621,6.793-9.274,11.627c-.393,3.918-2.875,13.194-1.829,16.589 0,0 2.351-9.012 3.788-12.149 2.47-4.84 7.31-16.07 7.31-16.07z" fill="#f7f7e5" fill-rule="evenodd"/> <path d="m198.89 166.1s-7.318 9.669-8.363 16.07" fill="none" stroke="#802526" stroke-linecap="round" stroke-miterlimit="2.4142" stroke-width=".648"/> <path d="m196.41 179.69s-2.483 4.835-3.398 13.589" fill="none" stroke="#802526" stroke-linecap="round" stroke-miterlimit="2.4142" stroke-width=".648"/> <path d="m226.06,139.84s-2.874,3.396-3.396,6.793-.523,11.104-.523,11.104" fill="none" stroke="#802526" stroke-linecap="round" stroke-miterlimit="2.4142" stroke-width=".648"/> <path d="m239.65 124.69s-2.874 6.793-2.874 8.359v6.793" fill="none" stroke="#802526" stroke-linecap="round" stroke-miterlimit="2.4142" stroke-width=".648"/> <path d="m237.69 116.46s-2.874 9.276-4.832 12.149" fill="none" stroke="#802526" stroke-linecap="round" stroke-miterlimit="2.4142" stroke-width=".648"/> <path d="m209.6 221.36s1.437 7.317 1.437 13.587" fill="none" stroke="#802526" stroke-linecap="round" stroke-miterlimit="2.4142" stroke-width=".648"/> <path d="m213.39,211.17s-1.437,9.667-.394,12.148" fill="none" stroke="#802526" stroke-linecap="round" stroke-miterlimit="2.4142" stroke-width=".648"/> <path d="m194.97,226.19s-.521,14.109-1.959,18.029" fill="none" stroke="#802526" stroke-linecap="round" stroke-miterlimit="2.4142" stroke-width=".648"/> <path d="m196.41,220.45s.912,7.706.912,11.104" fill="none" stroke="#802526" stroke-linecap="round" stroke-miterlimit="2.4142" stroke-width=".648"/> <path d="m162.05 240.83s-3.004 7.839-3.004 10.712" fill="none" stroke="#802526" stroke-linecap="round" stroke-miterlimit="2.4142" stroke-width=".648"/> <path d="m161.01 235.47s-4.312 5.356-3.79 8.23" fill="none" stroke="#802526" stroke-linecap="round" stroke-miterlimit="2.4142" stroke-width=".648"/> <path d="m85.628,213.13s-1.438,9.665.521,15.545" fill="none" stroke="#802526" stroke-linecap="round" stroke-miterlimit="2.4142" stroke-width=".648"/> <path d="m89.546,205.29s-.914,8.754 0,13.194" fill="none" stroke="#802526" stroke-linecap="round" stroke-miterlimit="2.4142" stroke-width=".648"/> <path d="m18.088 217.44s-1.044 7.315-3.005 11.757" fill="none" stroke="#802526" stroke-linecap="round" stroke-miterlimit="2.4142" stroke-width=".648"/> <path d="m16.521,208.3s-.392,7.706-1.829,12.541" fill="none" stroke="#802526" stroke-linecap="round" stroke-miterlimit="2.4142" stroke-width=".648"/> <path d="m286.81,103.79s1.046,7.839.523,13.717c-.523,5.75 1.044,10.189 1.044,10.189" fill="none" stroke="#802526" stroke-linecap="round" stroke-miterlimit="2.4142" stroke-width=".648"/> <path d="m288.77 90.203s2.481 11.233 2.481 16.589" fill="none" stroke="#802526" stroke-linecap="round" stroke-miterlimit="2.4142" stroke-width=".648"/> <path d="m285.37,78.575s-.915,8.23 0,11.106" fill="none" stroke="#802526" stroke-linecap="round" stroke-miterlimit="2.4142" stroke-width=".648"/> <path d="m252.84 63.421s-6.4 10.322-7.315 13.718" fill="none" stroke="#802526" stroke-linecap="round" stroke-miterlimit="2.4142" stroke-width=".648"/> <path d="m258.2 60.547s-4.442 5.878-5.88 8.752" fill="none" stroke="#802526" stroke-linecap="round" stroke-miterlimit="2.4142" stroke-width=".648"/> <path d="m258.59 51.793-3.788 4.834" fill="none" stroke="#802526" stroke-linecap="round" stroke-miterlimit="2.4142" stroke-width=".648"/> <path d="m244.61,83.932s-1.567,6.271-1.958,8.752c-.524,2.352-.524,7.708-1.568,9.145" fill="none" stroke="#802526" stroke-linecap="round" stroke-miterlimit="2.4142" stroke-width=".648"/> <path d="m251.4 76.095s-3.396 6.793-3.396 10.188" fill="none" stroke="#802526" stroke-linecap="round" stroke-miterlimit="2.4142" stroke-width=".648"/> <path d="m292.69,120.9 .915,7.185" fill="none" stroke="#802526" stroke-linecap="round" stroke-miterlimit="2.4142" stroke-width=".648"/> <path d="m295.17,98.431s1.436,4.441.913,7.839" fill="none" stroke="#802526" stroke-linecap="round" stroke-miterlimit="2.4142" stroke-width=".648"/> <path d="m290.2 67.341s-2.352 2.482-2.352 3.919" fill="none" stroke="#802526" stroke-linecap="round" stroke-miterlimit="2.4142" stroke-width=".648"/> <path d="m291.25,137.36 .915,6.793" fill="none" stroke="#802526" stroke-linecap="round" stroke-miterlimit="2.4142" stroke-width=".648"/> <path d="m290.2 152.91s1.567 4.441 3.005 5.878" fill="none" stroke="#802526" stroke-linecap="round" stroke-miterlimit="2.4142" stroke-width=".648"/> <path d="m286.81 141.8 1.046 5.356" fill="none" stroke="#802526" stroke-linecap="round" stroke-miterlimit="2.4142" stroke-width=".648"/> <path d="m282.5 183.61s2.35 5.356 3.918 5.749" fill="none" stroke="#802526" stroke-linecap="round" stroke-miterlimit="2.4142" stroke-width=".648"/> <path d="m245.53,206.34s.524,6.271 1.959,8.23 2.352,5.879 2.352,5.879" fill="none" stroke="#802526" stroke-linecap="round" stroke-miterlimit="2.4142" stroke-width=".648"/> <path d="m248.4,197.98s.523,7.316 1.437,8.752" fill="none" stroke="#802526" stroke-linecap="round" stroke-miterlimit="2.4142" stroke-width=".648"/> <path d="m15.476,241.35s-.653,7.317-1.829,9.929-1.437,5.094-1.437,5.094" fill="none" stroke="#802526" stroke-linecap="round" stroke-miterlimit="2.4142" stroke-width=".648"/> <path d="m17.828,235.99s-.262,8.754-1.307,10.842" fill="none" stroke="#802526" stroke-linecap="round" stroke-miterlimit="2.4142" stroke-width=".648"/> <path d="m64.988,215.48s0,4.44.783,6.14c.653,1.697 1.437,6.27 2.22,7.054" fill="none" stroke="#802526" stroke-linecap="round" stroke-miterlimit="2.4142" stroke-width=".648"/> <path d="m62.767,209.21s-.393,7.315.261,10.188" fill="none" stroke="#802526" stroke-linecap="round" stroke-miterlimit="2.4142" stroke-width=".648"/> <path d="m79.357 133.96s-2.874 1.961-7.969 6.142c-5.225 4.049-5.879 12.803-6.923 15.808" fill="none" stroke="#b3b398" stroke-linecap="round" stroke-miterlimit="2.4142" stroke-width=".648"/> <path d="m89.285,135.01s-2.874,4.05-5.095,5.096c-2.221.915-4.312,3.397-6.008,6.009-1.699,2.743-2.745,9.012-3.919,10.711" fill="none" stroke="#b3b398" stroke-linecap="round" stroke-miterlimit="2.4142" stroke-width=".648"/> <path d="m110.97,138.15s-3.919.651-6.532,1.437c-2.743.651-6.401,2.612-7.838,4.833s-2.352,3.397-2.352,3.397" fill="none" stroke="#b3b398" stroke-linecap="round" stroke-miterlimit="2.4142" stroke-width=".648"/> <path d="m136.05 135.4s-8.622 2.481-12.149 4.182c-3.657 1.697-5.877 3.656-7.313 3.919s-3.659 2.088-5.096 3.787" fill="none" stroke="#b3b398" stroke-linecap="round" stroke-miterlimit="2.4142" stroke-width=".648"/> <path d="m145.2,141.8s-5.356,1.177-7.447,1.701c-2.22.391-4.702.391-7.576,2.35" fill="none" stroke="#b3b398" stroke-linecap="round" stroke-miterlimit="2.4142" stroke-width=".648"/> <path d="m158.91,151.73s-1.697,1.699-2.219,2.614c-.524,1.044-.784,2.481-3.658,4.702s-3.397,7.448-4.182,10.973" fill="none" stroke="#b3b398" stroke-linecap="round" stroke-miterlimit="2.4142" stroke-width=".648"/> <path d="m160.09,146.12s-1.959,2.219-4.18,3.917-4.05,1.175-7.317,4.313c-3.135,3.265-4.31,6.925-5.354,8.621-.915,1.697-3.397,4.311-3.397,4.311" fill="none" stroke="#b3b398" stroke-linecap="round" stroke-miterlimit="2.4142" stroke-width=".648"/> <path d="m148.2 150.03s-7.055 2.483-10.452 6.793c-3.395 4.444-4.702 6.531-4.702 6.531" fill="none" stroke="#b3b398" stroke-linecap="round" stroke-miterlimit="2.4142" stroke-width=".648"/> <path d="m157.61 145.2s-3.397 2.614-4.312 3.658" fill="none" stroke="#b3b398" stroke-linecap="round" stroke-miterlimit="2.4142" stroke-width=".648"/> <path d="m172.76 145.2s-3.396 1.437-5.617 2.352c-3.396 1.437-6.139 3.917-6.139 3.917" fill="none" stroke="#b3b398" stroke-linecap="round" stroke-miterlimit="2.4142" stroke-width=".648"/> <path d="m180.86,147.29s-2.222,2.221-4.835,3.005c-2.613.653-6.009,2.221-6.923,2.874" fill="none" stroke="#b3b398" stroke-linecap="round" stroke-miterlimit="2.4142" stroke-width=".648"/> <path d="m62.374,130.05s-6.139.26-9.275,1.957c-3.266,1.699-10.059,8.23-11.626,11.235" fill="none" stroke="#b3b398" stroke-linecap="round" stroke-miterlimit="2.4142" stroke-width=".648"/> <path d="m80.272 130.57s-11.235 1.437-14.109 3.135c-2.875 1.699-7.578 6.14-8.492 7.839s-2.483 3.658-2.483 3.658" fill="none" stroke="#b3b398" stroke-linecap="round" stroke-miterlimit="2.4142" stroke-width=".648"/> <path d="m48.135,128.87s-2.353.913-3.396,1.959c-.915.915-2.874,2.352-4.05,2.874-1.307.524-7.316,5.094-8.1,7.055" fill="none" stroke="#b3b398" stroke-linecap="round" stroke-miterlimit="2.4142" stroke-width=".648"/> <path d="m34.026 136.45s-3.396 1.437-5.226 4.575c-1.959 3.134-3.266 6.269-3.266 6.269" fill="none" stroke="#b3b398" stroke-linecap="round" stroke-miterlimit="2.4142" stroke-width=".648"/> <path d="m53.622 142.2s-4.18 4.702-5.879 8.752c-1.698 4.18-1.698 6.402-1.698 6.402" fill="none" stroke="#b3b398" stroke-linecap="round" stroke-miterlimit="2.4142" stroke-width=".648"/> <path d="m96.862,139.06s-6.14,4.834-7.316,7.837c-1.175,2.874-3.918,9.145-4.05,12.15-.261,2.874-.261,4.834-.261,4.834" fill="none" stroke="#b3b398" stroke-linecap="round" stroke-miterlimit="2.4142" stroke-width=".648"/> <path d="m85.497,152.64s-3.658,4.181-4.44,6.793c-.784,2.745-1.699,8.1-1.699,8.1" fill="none" stroke="#b3b398" stroke-linecap="round" stroke-miterlimit="2.4142" stroke-width=".648"/> <path d="m127.43 145.46s-3.528 2.614-5.225 6.271-3.005 4.311-3.919 5.878c-1.044 1.438-2.482 7.054-2.744 8.49" fill="none" stroke="#b3b398" stroke-linecap="round" stroke-miterlimit="2.4142" stroke-width=".648"/> <path d="m51.532 161.27s-3.396 7.184-3.789 10.582" fill="none" stroke="#b3b398" stroke-linecap="round" stroke-miterlimit="2.4142" stroke-width=".648"/> <path d="m24.36 139.84s-3.92 2.874-4.834 7.315c-1.045 4.311-1.96 10.191-3.397 12.543-1.437 2.48-4.834 10.71-4.834 10.71" fill="none" stroke="#b3b398" stroke-linecap="round" stroke-miterlimit="2.4142" stroke-width=".648"/> <path d="m23.837,133.7s-5.486,4.704-6.009,6.793c-.523,2.221-1.96,6.4-1.96,7.837s-.784,3.92-.784,3.92" fill="none" stroke="#b3b398" stroke-linecap="round" stroke-miterlimit="2.4142" stroke-width=".648"/> <path d="m104.83,154.21s-3.135,4.313-3.79,7.187c-.783,3.005-1.567,5.356-1.958,6.662-.523,1.177-.523,6.793-.523,6.793" fill="none" stroke="#b3b398" stroke-linecap="round" stroke-miterlimit="2.4142" stroke-width=".648"/> <path d="m97.646 167.54s-1.829 5.356-2.22 7.316c-1.045 3.92-1.176 3.92-1.176 3.92" fill="none" stroke="#b3b398" stroke-linecap="round" stroke-miterlimit="2.4142" stroke-width=".648"/> <path d="m131.35,155.65s-1.829,3.265-3.397,5.748c-2.351,3.919-1.437,6.793-2.351,8.752-.784,1.569-2.743,6.793-2.743,6.793" fill="none" stroke="#b3b398" stroke-linecap="round" stroke-miterlimit="2.4142" stroke-width=".648"/> <path d="m125.08 161.92s-2.743 4.834-2.22 6.533" fill="none" stroke="#b3b398" stroke-linecap="round" stroke-miterlimit="2.4142" stroke-width=".648"/> <path d="m26.841,158.26s-2.481,4.444-3.004,6.796c-.393,2.479-3.397,6.398-2.874,8.359" fill="none" stroke="#b3b398" stroke-linecap="round" stroke-miterlimit="2.4142" stroke-width=".648"/> <path d="m129.91 130.05s-9.013 1.957-11.886 4.18" fill="none" stroke="#b3b398" stroke-linecap="round" stroke-miterlimit="2.4142" stroke-width=".648"/> <path d="m118.94,127.96s-2.351.391-4.573,1.175c-2.744.917-5.095.653-6.531,1.699" fill="none" stroke="#b3b398" stroke-linecap="round" stroke-miterlimit="2.4142" stroke-width=".648"/> <path d="m157.35 136.84s-6.532 2.221-7.969 4.704" fill="none" stroke="#b3b398" stroke-linecap="round" stroke-miterlimit="2.4142" stroke-width=".648"/> <path d="m148.86,136.71s-6.792-.262-11.625,1.699" fill="none" stroke="#b3b398" stroke-linecap="round" stroke-miterlimit="2.4142" stroke-width=".648"/> <path d="m180.08 138.41s-2.741 0-6.922 2.614" fill="none" stroke="#b3b398" stroke-linecap="round" stroke-miterlimit="2.4142" stroke-width=".648"/> <path d="m172.5,136.19s-3.396-.261-8.753,2.874" fill="none" stroke="#b3b398" stroke-linecap="round" stroke-miterlimit="2.4142" stroke-width=".648"/> <path d="m155 132.53s-10.975-1.697-16.069 0" fill="none" stroke="#b3b398" stroke-linecap="round" stroke-miterlimit="2.4142" stroke-width=".648"/> <path d="m90.984,122.99s-11.889.786-19.857,3.267" fill="none" stroke="#b3b398" stroke-linecap="round" stroke-miterlimit="2.4142" stroke-width=".648"/> <path d="m72.826,122.99s-6.663-.651-15.416,1.701" fill="none" stroke="#b3b398" stroke-linecap="round" stroke-miterlimit="2.4142" stroke-width=".648"/> <path d="m100.26,125.74s-9.274.262-12.411,2.221" fill="none" stroke="#b3b398" stroke-linecap="round" stroke-miterlimit="2.4142" stroke-width=".648"/> <path d="m85.889,120.64s-8.229-.524-11.626.261" fill="none" stroke="#b3b398" stroke-linecap="round" stroke-miterlimit="2.4142" stroke-width=".648"/> <path d="m165.71,133.18s-6.401.522-9.538,1.568" fill="none" stroke="#b3b398" stroke-linecap="round" stroke-miterlimit="2.4142" stroke-width=".648"/> <path d="m195.1,266.95s-1.568,1.568-2.221,5.488l-1.048,5.356-1.044-2.352s-1.306,5.094-1.568,6.009c-.261.786-2.089,7.185-2.742,8.23" fill="none" stroke="#411313" stroke-linecap="round" stroke-miterlimit="2.4142" stroke-width=".648"/> <path d="m151.08,269.44s.914-2.221 1.307-2.743c.391-.391 1.567-3.005 1.567-3.005" fill="none" stroke="#411313" stroke-linecap="round" stroke-miterlimit="2.4142" stroke-width=".648"/> <path d="m30.238,274.27s2.482-4.963 2.743-5.75c.262-.651 2.613-3.524 2.613-3.524l-.261,1.306s2.09-1.306 2.351-1.7c.394-.392 2.483-2.219 3.397-2.35 .785-.129 3.659-2.352 3.659-2.352l-.653,1.959s2.743-1.959 3.004-4.18c.392-2.09 2.352-6.139 2.352-6.139l.131,2.743s2.22-3.266 2.352-4.574c.261-1.306 1.175-4.049 2.221-5.093l.391,3.787s.261-3.527.652-4.702c.523-1.046 1.307-4.834 1.569-5.878 .13-1.175-.262-4.573-.262-4.573l1.176,1.697s-.523-5.224-1.959-7.837c-1.306-2.611-1.567-5.354-1.567-5.354" fill="none" stroke="#411313" stroke-linecap="round" stroke-miterlimit="2.4142" stroke-width=".648"/> <path d="m74.263,248.67s-2.744-.786-4.833-1.96c-2.222-1.308-3.92-2.482-3.92-2.482l.654,2.22s-1.176-.521-2.091-1.306c-1.045-.653-2.743-2.614-2.743-2.614l-.393,1.438-1.567-1.438-1.176,2.223-1.699-3.397" fill="none" stroke="#411313" stroke-linecap="round" stroke-miterlimit="2.4142" stroke-width=".648"/> <path d="m345.59,59.763c.263.131-1.177-.262-1.437-1.306-.394-1.175-.652-2.481-1.176-3.004-.652-.522-2.874-1.829-3.658-1.438-.654.26-.263.131.131.524 .653.651 3.136.914 3.267,1.437 .261.391.915,1.568.915,1.568s.02,2.088 1.97,2.219z" fill="#33332b" fill-rule="evenodd"/> <path d="m344.94,69.954-.394-.131s-.912.26-2.089.131c-.915-.131-1.438,0-3.005-1.177-1.698-1.306-4.573-3.789-5.226-3.789-.653-.26 0,.26.131.393s.653.391.653.391 1.828,1.046 2.089,1.308c.263.391 2.353,2.48 4.052,3.264 0,0 1.306.524 2.352.524 1.174-.131 1.304-.786 1.304-.786l.14-.128z" fill="#33332b" fill-rule="evenodd"/> <path d="m309.67,39.124s-1.567-1.437-3.92-.392c-2.482,1.044-3.136,2.743-4.051,3.134-.913.262-1.305,1.046-1.043,1.177" fill="none" stroke="#8c8c77" stroke-linecap="round" stroke-miterlimit="2.4142" stroke-width=".648"/> <path d="m300.66,43.303s-.262,0-.392.391c0,.394.652,1.96 1.567,2.613" fill="none" stroke="#8c8c77" stroke-linecap="round" stroke-miterlimit="2.4142" stroke-width=".648"/> <path d="m312.54,44.349-.916-.131" fill="none" stroke="#8c8c77" stroke-linecap="round" stroke-miterlimit="2.4142" stroke-width=".648"/> <path d="m300.53,43.043s-1.177-.262-1.177.129" fill="none" stroke="#8c8c77" stroke-linecap="round" stroke-miterlimit="2.4142" stroke-width=".648"/> <path d="m332.92,64.467c.261-.26.915.391.915.391s-.654-.129-.786.131" fill="none" stroke="#8c8c77" stroke-linecap="round" stroke-miterlimit="2.4142" stroke-width=".648"/> <path d="m331.75,63.552s-.653-.522-1.045-1.306c-.391-.653-1.046-1.177-1.698-1.437-.653-.131-3.526-.392-3.788-.653" fill="none" stroke="#8c8c77" stroke-linecap="round" stroke-miterlimit="2.4142" stroke-width=".648"/> <path d="m323,50.62s-2.874-1.046-4.835-.264c-1.697.655-4.18.786-4.702.786" fill="none" stroke="#8c8c77" stroke-linecap="round" stroke-miterlimit="2.4142" stroke-width=".648"/> <path d="m335.67,50.096s-4.701-3.396-6.01-3.789-5.616-2.613-5.094-2.09c.521.653.653,1.177 1.437,1.568 .915.522 5.879,2.614 6.4,3.134 .653.655.785,1.57 1.177,1.045 .38-.521 2.08.132 2.08.132z" fill="#59594d" fill-rule="evenodd"/> <path d="m300.26,14.955s-5.095,6.663-4.965,7.97c.131,1.175-.522,2.09-.522,2.09l.784-.393s-1.699,1.7-1.959,3.006c-.133,1.306-.915,1.959-1.046,2.481-.132.653-.393,1.306-.393,1.306s-.392-1.177-.261-1.959c.261-.915 1.699-3.528 1.699-3.528l-.523-.13 .783-1.829s.26-1.306.915-1.961c.653-.651 2.614-3.917 2.614-3.917h-.524s.652-1.308 1.437-1.83c.65-.391 1.95-1.306 1.95-1.306z" fill="#752223" fill-rule="evenodd"/> <path d="m176.81,373.42s.652,1.698-.524,2.352c-1.306.784-1.566.522-2.088.132s-1.046-1.047-1.177-1.83c-.262-.653-.654-4.049-1.307-4.833s-.654-2.875-.654-1.699c-.131,1.176-.391,1.567-.26,3.005s-.131,2.743.522,3.397c.783.782 1.437,2.089 1.437,3.134 0,.915-5.096,2.224-6.401,1.177-1.175-1.177-2.481-.914-3.396-2.744-.784-1.83-1.044-2.612-.653-3.658 .262-.914.132-2.089-.131-3.004-.393-.784-1.96-3.397-1.96-4.704 0,0 0,2.221.393,3.397 .522,1.176.914,4.18.914,5.878 0,1.83-.652,3.657.522,4.443 1.046.651 1.046,2.35 3.396,2.35 2.221-.131 9.015-.131 10.843-1.959 1.71-1.83.53-4.84.53-4.84z" fill="#bfbfac" fill-rule="evenodd"/> <path d="m175.51,317.38s.261,2.352-.394,4.051c-.521,1.568-1.306,3.265-1.827,3.656-.523.523-1.83,3.791-2.223,5.097-.26,1.174-1.958,7.968-2.22,5.485-.262-2.35.783-5.095 1.046-6.27 .26-1.175.521-3.526.13-2.611-.393.782-1.307,2.09-1.307,2.09s-.26-1.046.393-2.09c.784-.915 1.958-3.658.784-2.614-1.046.913-1.83,1.959-1.83,1.959s.262-1.566.914-2.352c.522-.651 1.176-2.35.522-1.959-.522.391-1.306,1.308-1.306,1.308s-.131-1.308.522-1.83c.653-.653 1.437-1.044 2.743-1.83 1.307-.651 2.482-.913 2.745-1.697 .391-.915 1.697-3.005 1.697-3.005s-.64,2.08-.37,2.6z" fill="#bfbfac" fill-rule="evenodd"/> <path d="m14.823,288.9s.915,17.243 3.135,22.337c1.83,4.311.784,12.019.393,9.407-.523-2.745-2.222-6.663-2.483-9.798s-2.351-7.186-2.351-10.06-.132-8.621-.132-8.621 .785-11.76 1.438-3.27z" fill="#bfbfac" fill-rule="evenodd"/> <path d="m208.43,361.66c0-.653 2.222.522 3.265,1.568 .915,1.177 3.79,4.702 4.442,5.093 .652.524 1.438,1.96.261,2.482-1.305.524-4.05-.391-4.703-.391s.263,1.568.784,2.352c.521.653 2.352,2.874 0,3.137s-10.711-.132-12.541-1.309-3.267-4.311-3.397-5.354c-.128-1.177-2.089-3.005-1.306-2.875 .653.262 2.482,1.045 4.051.654 1.307-.393 4.704-1.174 6.662-2.744 1.177-1.044 1.437-.131 1.437-.131s1.05-1.56 1.05-2.48z" fill="#a4a186" fill-rule="evenodd"/> <path d="m176.68,376.69c.394-.393 1.309.782 2.091,2.09 .784,1.175 3.004,5.226 3.397,5.878 .521.653 1.045,2.222-.262,2.352-1.306.263-3.788-1.176-4.441-1.176-.524-.132 0,1.569.261,2.352s1.697,3.397-.652,3.137c-2.221-.264-10.32-2.353-11.888-3.79-1.438-1.566-2.353-4.835-2.222-6.009 .131-1.045-1.438-3.396-.784-3.005 .784.391 2.352,1.437 3.788,1.437 1.568,0 5.095-.26 7.187-1.437 1.437-.784 1.437.262 1.437.262s1.42-1.57 2.07-2.09z" fill="#a4a186" fill-rule="evenodd"/> <path d="m197.06,367.28s.652,1.566 1.043,1.959c.394.26.263,1.306.394,1.697s2.874,3.657 4.573,4.313c0,0-2.222-.394-2.745-.655 0,0-1.435-.521-3.135-4.048 0,0-.392-1.568-.523-1.959-.259-.264-1.437-1.83-1.437-1.83l1.84.52z" fill="#686655" fill-rule="evenodd"/> <path d="m208.43,361.66c0-.653 2.222.522 3.265,1.568 .915,1.177 3.79,4.702 4.442,5.093 .652.524 1.438,1.96.261,2.482-1.305.524-4.05-.391-4.703-.391s.263,1.568.784,2.352c.521.653 2.352,2.874 0,3.137s-10.711-.132-12.541-1.309-3.267-4.311-3.397-5.354c-.128-1.177-2.089-3.005-1.306-2.875" fill="none" stroke="#000" stroke-miterlimit="2.4142" stroke-width=".648"/> <path d="m207.64,364.41 3.788,6.007s0-.26.652-.131c0,0 3.137.653 3.922.393 0,0-.914,0-1.438-.393-.392-.522-1.96-2.743-2.351-3.134-.524-.393-3.135-3.788-4.181-3.788 .01-.01-.13.91-.39,1.04z" fill="#686655" fill-rule="evenodd"/> <path d="m163.75,379.69s.522,1.697.783,2.088c.262.395 0,1.308.131,1.831 0,.392 1.96,4.049 3.527,5.095 0,0-2.222-.784-2.481-1.177 0,0-1.438-.784-2.482-4.703 0,0 .131-1.437-.131-1.959-.131-.392-.784-2.09-.784-2.09l1.43.92z" fill="#686655" fill-rule="evenodd"/> <path d="m177.2,376.82c.522.26 1.177,1.175 1.567,1.959 .784,1.175 3.004,5.226 3.397,5.878 .521.653 1.045,2.222-.262,2.352-1.306.263-3.788-1.176-4.441-1.176-.524-.132 0,1.569.261,2.352s1.697,3.397-.652,3.137c-2.221-.264-10.32-2.353-11.888-3.79-1.438-1.566-2.353-4.835-2.222-6.009 .131-1.045-1.438-3.396-.784-3.005" fill="none" stroke="#000" stroke-miterlimit="2.4142" stroke-width=".648"/> <path d="m177.2,385.83s-2.351-6.4-2.481-6.925c0,0 .913-1.042 1.306-1.306 .522-.392 1.176,1.961 1.567,2.875 .915,1.828 4.312,6.531 3.006,6.27 0,0-1.699-.521-2.612-.914-.01.01-.66-.38-.8.01z" fill="#686655" fill-rule="evenodd"/> <path d="m45.652,361.27c.392-.391 1.438.784 2.222,1.961 .914,1.306 3.134,5.226 3.657,5.748 .522.653 1.176,2.221-.131,2.482-1.176.26-3.919-1.046-4.441-1.177-.654,0 0,1.699.392,2.482 .262.785 1.698,3.266-.523,3.137-2.352-.132-10.582-1.83-12.148-3.267-1.699-1.568-2.613-4.833-2.613-5.879 .13-1.043-1.568-3.266-.784-3.004 .653.391 2.351,1.437 3.789,1.306 1.567-.131 4.963-.391 7.054-1.696 1.437-.915 1.437.129 1.437.129s1.566-1.56 2.089-2.22z" fill="#a4a186" fill-rule="evenodd"/> <path d="m32.85,364.93s.523,1.568.784,1.959c.392.395.132,1.437.132,1.831s2.22,4.049 3.917,4.962c0,0-2.22-.782-2.743-1.044 0,0-1.307-.785-2.481-4.573 0,0 0-1.568-.262-1.958-.13-.391-.914-2.092-.914-2.092l1.567.91z" fill="#686655" fill-rule="evenodd"/> <path d="m46.306,361.4c.522.393 1.045,1.046 1.569,1.83 .914,1.306 3.134,5.226 3.657,5.748 .522.653 1.176,2.221-.131,2.482-1.176.26-3.919-1.046-4.441-1.177-.654,0 0,1.699.392,2.482 .262.785 1.698,3.266-.523,3.137-2.352-.132-10.582-1.83-12.148-3.267-1.699-1.568-2.613-4.833-2.613-5.879 .13-1.043-1.568-3.266-.784-3.004" fill="none" stroke="#000" stroke-miterlimit="2.4142" stroke-width=".648"/> <path d="m46.567,370.29s-2.743-6.14-2.875-6.663c0,0 1.046-1.174 1.437-1.437 .523-.391 1.307,1.959 1.699,2.743 .915,1.959 4.573,6.402 3.267,6.271 0,0-1.83-.393-2.614-.915 0,.01-.653-.25-.914.01z" fill="#686655" fill-rule="evenodd"/> <path d="m288.38 45.526s-3.265 5.354-2.481 9.665" fill="none" stroke="#802526" stroke-linecap="round" stroke-miterlimit="2.4142" stroke-width=".648"/> <path d="m344.94,70.083-.524-.26s-1.436.521-2.742.131c-1.176-.262-2.352-1.046-3.658-2.092 0,0-3.136-2.874-3.788-2.874" fill="none" stroke="#1a1a16" stroke-linecap="round" stroke-miterlimit="2.4142" stroke-width=".288"/> <path d="m345.33,59.632s-1.044-.26-1.306-.913c-.263-.655-.521-2.352-.915-2.743-.262-.264-2.221-1.961-3.397-1.961l-.391.26" fill="none" stroke="#1a1a16" stroke-linecap="round" stroke-miterlimit="2.4142" stroke-width=".288"/> </svg>